<svg width="75" height="20" viewBox="0 0 75 20" fill="none" xmlns="http://www.w3.org/2000/svg">
<path d="M11.5553 9.392C11.5642 8.7157 11.7376 8.0527 12.0593 7.4646C12.3809 6.87649 12.8405 6.38234 13.3952 6.02804C13.0425 5.50478 12.5772 5.07414 12.0361 4.77035C11.4951 4.46655 10.8934 4.29795 10.2787 4.27796C8.96727 4.1352 7.69617 5.09269 7.02783 5.09269C6.34685 5.09269 5.31748 4.29191 4.20991 4.3157C3.49307 4.34009 2.79456 4.55698 2.18247 4.94522C1.57037 5.33347 1.06559 5.87981 0.717328 6.53099C-0.793147 9.24678 0.333389 13.2376 1.77987 15.4324C2.50351 16.5072 3.3496 17.7076 4.45639 17.6657C5.53947 17.6189 5.94395 16.9486 7.2514 16.9486C8.54699 16.9486 8.92619 17.6657 10.0559 17.6386C11.218 17.6189 11.9519 16.5589 12.6487 15.4742C13.1685 14.7082 13.5684 13.8617 13.8337 12.966C13.1584 12.6695 12.5822 12.1731 12.1767 11.5387C11.7713 10.9043 11.5546 10.16 11.5537 9.39857L11.5553 9.392ZM9.42152 2.83309C10.0547 2.04288 10.3664 1.02747 10.2905 0.00244141C9.32228 0.107847 8.42784 0.588292 7.78544 1.34803C7.15247 2.09745 6.83195 3.07724 6.89432 4.07202C7.37834 4.0774 7.85724 3.9687 8.29497 3.75411C8.73271 3.53951 9.11788 3.22461 9.42152 2.83309Z" fill="#0D0D0D"/>
<path d="M24.5495 15.0463H20.9945L20.1413 17.6636H18.6364L22.0033 7.98193H23.5675L26.9345 17.6636H25.4027L24.5495 15.0463ZM21.3634 13.8385H24.1806L22.7917 9.59007H22.753L21.3634 13.8385Z" fill="#0D0D0D"/>
<path d="M34.2049 14.134C34.2049 16.3279 33.0744 17.7383 31.368 17.7383C30.9357 17.7618 30.5057 17.6583 30.1274 17.4398C29.749 17.2213 29.4376 16.8965 29.2287 16.5027H29.1987V19.9996H27.8011V10.6035H29.152V11.7776H29.1773C29.3958 11.3858 29.7125 11.0629 30.0937 10.8431C30.4748 10.6234 30.9062 10.515 31.3419 10.5296C33.0696 10.5296 34.2049 11.9458 34.2049 14.134ZM32.7702 14.134C32.7702 12.7047 32.0592 11.7644 30.9738 11.7644C29.9073 11.7644 29.19 12.7244 29.19 14.134C29.19 15.5567 29.9073 16.5134 30.9738 16.5134C32.0592 16.5134 32.7702 15.5805 32.7702 14.134Z" fill="#0D0D0D"/>
<path d="M41.6858 14.134C41.6858 16.3279 40.5546 17.7383 38.8482 17.7383C38.4158 17.7618 37.9859 17.6583 37.6076 17.4398C37.2292 17.2213 36.9178 16.8965 36.7089 16.5027H36.6765V19.9996H35.2869V10.6035H36.6378V11.7776H36.663C36.8816 11.3858 37.1982 11.0629 37.5794 10.8431C37.9606 10.6234 38.3919 10.515 38.8276 10.5296C40.5506 10.5296 41.6858 11.9458 41.6858 14.134ZM40.2512 14.134C40.2512 12.7047 39.5402 11.7644 38.4548 11.7644C37.3883 11.7644 36.6709 12.7244 36.6709 14.134C36.6709 15.5567 37.3883 16.5134 38.4548 16.5134C39.5402 16.5134 40.2512 15.5805 40.2512 14.134Z" fill="#0D0D0D"/>
<path d="M46.6322 14.9659C46.7357 15.9267 47.6339 16.5568 48.8616 16.5568C50.0379 16.5568 50.884 15.9258 50.884 15.0602C50.884 14.3087 50.3737 13.8582 49.165 13.5497L47.9563 13.247C46.2443 12.8171 45.4488 11.9859 45.4488 10.6362C45.4488 8.9649 46.8511 7.81787 48.8411 7.81787C50.8161 7.81787 52.163 8.96654 52.2088 10.6362H50.801C50.7165 9.66969 49.9478 9.08633 48.8261 9.08633C47.7043 9.08633 46.9301 9.67626 46.9301 10.5353C46.9301 11.2204 47.4214 11.6233 48.623 11.9301L49.65 12.1918C51.5634 12.662 52.3573 13.4603 52.3573 14.8765C52.3573 16.6881 50.9685 17.8228 48.7581 17.8228C46.6899 17.8228 45.294 16.7143 45.2031 14.9626L46.6322 14.9659Z" fill="#0D0D0D"/>
<path d="M55.3716 8.93213V10.6034H56.6648V11.7521H55.3716V15.6436C55.3716 16.2483 55.6307 16.5298 56.1987 16.5298C56.3522 16.527 56.5054 16.5157 56.6577 16.4961V17.6374C56.4023 17.6871 56.1426 17.7096 55.8827 17.7047C54.5066 17.7047 53.9694 17.1681 53.9694 15.7987V11.7505H52.9811V10.6018H53.9694V8.93213H55.3716Z" fill="#0D0D0D"/>
<path d="M57.4119 14.1338C57.4119 11.912 58.6719 10.5164 60.6366 10.5164C62.6014 10.5164 63.8614 11.9112 63.8614 14.1338C63.8614 16.3565 62.614 17.7513 60.6366 17.7513C58.6593 17.7513 57.4119 16.3615 57.4119 14.1338ZM62.4394 14.1338C62.4394 12.6102 61.7671 11.7102 60.6358 11.7102C59.5046 11.7102 58.8323 12.6127 58.8323 14.1338C58.8323 15.664 59.5046 16.5567 60.6358 16.5567C61.7671 16.5567 62.4394 15.664 62.4394 14.1338Z" fill="#0D0D0D"/>
<path d="M65.012 10.6034H66.3431V11.8029H66.3755C66.4656 11.4276 66.6773 11.0959 66.9751 10.8635C67.2729 10.6312 67.6386 10.5124 68.0108 10.5271C68.1716 10.5266 68.3319 10.5447 68.4887 10.5812V11.9367C68.2857 11.8721 68.0738 11.8425 67.8615 11.8489C67.6587 11.8403 67.4566 11.8774 67.269 11.9576C67.0813 12.0379 66.9126 12.1593 66.7744 12.3137C66.6363 12.468 66.5319 12.6516 66.4685 12.8518C66.4051 13.052 66.3841 13.264 66.4071 13.4734V17.6579H65.012V10.6034Z" fill="#0D0D0D"/>
<path d="M74.9229 15.5902C74.7349 16.8718 73.5333 17.7513 71.9952 17.7513C70.0202 17.7513 68.7902 16.3754 68.7902 14.1675C68.7902 11.9596 70.0241 10.5164 71.9367 10.5164C73.8177 10.5164 75.0003 11.8587 75.0003 13.9993V14.4957H70.1995V14.5835C70.1773 14.8434 70.2085 15.1052 70.2912 15.3516C70.3739 15.598 70.5061 15.8232 70.6791 16.0124C70.8521 16.2017 71.0619 16.3505 71.2945 16.449C71.5272 16.5475 71.7773 16.5934 72.0284 16.5838C72.358 16.6158 72.6889 16.5365 72.9717 16.3577C73.2545 16.1788 73.4742 15.9099 73.5981 15.591L74.9229 15.5902ZM70.205 13.4832H73.602C73.6145 13.2496 73.5803 13.0158 73.5017 12.7965C73.4231 12.5772 73.3016 12.3772 73.1451 12.2089C72.9885 12.0407 72.8001 11.9078 72.5918 11.8188C72.3834 11.7297 72.1596 11.6863 71.9344 11.6913C71.7072 11.69 71.482 11.7354 71.2718 11.8249C71.0616 11.9144 70.8705 12.0463 70.7096 12.2129C70.5487 12.3795 70.4211 12.5775 70.3343 12.7955C70.2474 13.0135 70.2029 13.2473 70.2035 13.4832H70.205Z" fill="#0D0D0D"/>
<path d="M21.1897 0.690114C21.4823 0.668269 21.7759 0.714139 22.0494 0.824415C22.3228 0.93469 22.5693 1.10662 22.771 1.32781C22.9727 1.549 23.1246 1.81392 23.2158 2.10348C23.307 2.39303 23.3351 2.69999 23.2983 3.00222C23.2983 4.48893 22.5248 5.34387 21.1897 5.34387H19.571V0.690114H21.1897ZM20.267 4.68503H21.1115C21.3206 4.69797 21.5298 4.66233 21.7239 4.58072C21.918 4.4991 22.0922 4.37356 22.2337 4.21323C22.3752 4.0529 22.4805 3.86182 22.5419 3.65389C22.6034 3.44596 22.6194 3.22642 22.5888 3.01125C22.6171 2.79696 22.5994 2.57882 22.537 2.37247C22.4746 2.16611 22.369 1.97664 22.2278 1.81763C22.0866 1.65862 21.9134 1.53399 21.7204 1.45269C21.5274 1.37138 21.3195 1.3354 21.1115 1.34732H20.267V4.68503Z" fill="#0D0D0D"/>
<path d="M24.0836 3.58554C24.062 3.35455 24.0871 3.12143 24.1574 2.90114C24.2277 2.68085 24.3416 2.47827 24.4918 2.30642C24.642 2.13457 24.8251 1.99724 25.0294 1.90326C25.2337 1.80929 25.4547 1.76074 25.6782 1.76074C25.9016 1.76074 26.1226 1.80929 26.3269 1.90326C26.5312 1.99724 26.7144 2.13457 26.8645 2.30642C27.0147 2.47827 27.1286 2.68085 27.1989 2.90114C27.2692 3.12143 27.2944 3.35455 27.2728 3.58554C27.2944 3.81653 27.2692 4.04966 27.1989 4.26995C27.1286 4.49024 27.0147 4.69281 26.8645 4.86467C26.7144 5.03652 26.5312 5.17384 26.3269 5.26782C26.1226 5.36179 25.9016 5.41034 25.6782 5.41034C25.4547 5.41034 25.2337 5.36179 25.0294 5.26782C24.8251 5.17384 24.642 5.03652 24.4918 4.86467C24.3416 4.69281 24.2277 4.49024 24.1574 4.26995C24.0871 4.04966 24.062 3.81653 24.0836 3.58554ZM26.5863 3.58554C26.5863 2.82414 26.2568 2.37944 25.6794 2.37944C25.1019 2.37944 24.7732 2.82496 24.7732 3.58554C24.7732 4.34613 25.0995 4.79247 25.6794 4.79247C26.2592 4.79247 26.5863 4.34941 26.5863 3.58554Z" fill="#0D0D0D"/>
<path d="M31.5127 5.34319H30.8206L30.1215 2.75704H30.0701L29.3741 5.34319H28.6884L27.7562 1.83154H28.4333L29.0392 4.51123H29.089L29.7842 1.83154H30.424L31.1192 4.51123H31.1722L31.7749 1.83154H32.4401L31.5127 5.34319Z" fill="#0D0D0D"/>
<path d="M33.2258 1.83155H33.8681V2.38948H33.9179C34.0024 2.18905 34.145 2.02102 34.3258 1.90879C34.5067 1.79657 34.7167 1.74576 34.9267 1.76345C35.0913 1.75049 35.2567 1.77621 35.4104 1.83869C35.5642 1.90117 35.7025 1.99881 35.8149 2.12436C35.9274 2.24991 36.0112 2.40016 36.0601 2.56395C36.109 2.72773 36.1218 2.90086 36.0975 3.07047V5.3432H35.4299V3.24442C35.4299 2.67993 35.1929 2.39932 34.7 2.39932C34.5884 2.39418 34.477 2.41413 34.3735 2.4578C34.2701 2.50148 34.1769 2.56785 34.1004 2.65237C34.0238 2.7369 33.9658 2.83759 33.9302 2.94756C33.8946 3.05753 33.8823 3.17418 33.8942 3.28954V5.34074H33.2266L33.2258 1.83155Z" fill="#0D0D0D"/>
<path d="M37.1599 0.460449H37.8275V5.34312H37.1599V0.460449Z" fill="#0D0D0D"/>
<path d="M38.7546 3.58554C38.733 3.35455 38.7581 3.12143 38.8284 2.90114C38.8987 2.68085 39.0126 2.47827 39.1628 2.30642C39.313 2.13457 39.4961 1.99724 39.7004 1.90326C39.9047 1.80929 40.1257 1.76074 40.3492 1.76074C40.5726 1.76074 40.7936 1.80929 40.9979 1.90326C41.2023 1.99724 41.3854 2.13457 41.5356 2.30642C41.6857 2.47827 41.7996 2.68085 41.8699 2.90114C41.9402 3.12143 41.9654 3.35455 41.9438 3.58554C41.9654 3.81653 41.9402 4.04966 41.8699 4.26995C41.7996 4.49024 41.6857 4.69281 41.5356 4.86467C41.3854 5.03652 41.2023 5.17384 40.9979 5.26782C40.7936 5.36179 40.5726 5.41034 40.3492 5.41034C40.1257 5.41034 39.9047 5.36179 39.7004 5.26782C39.4961 5.17384 39.313 5.03652 39.1628 4.86467C39.0126 4.69281 38.8987 4.49024 38.8284 4.26995C38.7581 4.04966 38.733 3.81653 38.7546 3.58554ZM41.2573 3.58554C41.2573 2.82414 40.9279 2.37944 40.3504 2.37944C39.7729 2.37944 39.4442 2.82496 39.4442 3.58554C39.4442 4.34613 39.7681 4.79247 40.3504 4.79247C40.9326 4.79247 41.2573 4.34941 41.2573 3.58554Z" fill="#0D0D0D"/>
<path d="M42.6465 4.34958C42.6465 3.71781 43.0999 3.3527 43.9042 3.30101L44.8198 3.24603V2.94328C44.8198 2.57242 44.5828 2.3632 44.1277 2.3632C43.7549 2.3632 43.4957 2.50514 43.4231 2.75375H42.7768C42.8448 2.15069 43.3915 1.76343 44.1585 1.76343C45.0062 1.76343 45.4842 2.20156 45.4842 2.94328V5.34236H44.8427V4.85007H44.7897C44.6826 5.02715 44.532 5.17149 44.3535 5.26836C44.175 5.36523 43.975 5.41115 43.7738 5.40143C43.6318 5.4168 43.4882 5.40107 43.3524 5.35526C43.2166 5.30944 43.0915 5.23456 42.9853 5.13544C42.8791 5.03633 42.794 4.91518 42.7357 4.77982C42.6773 4.64446 42.6469 4.49789 42.6465 4.34958ZM44.8198 4.04928V3.75555L43.9942 3.81052C43.5289 3.84252 43.3172 4.00744 43.3172 4.31676C43.3172 4.62608 43.5811 4.81643 43.9445 4.81643C44.0508 4.82758 44.1583 4.81639 44.2604 4.78353C44.3625 4.75067 44.4572 4.69681 44.5389 4.62516C44.6205 4.55351 44.6875 4.46553 44.7357 4.36646C44.784 4.26738 44.8126 4.15924 44.8198 4.04846V4.04928Z" fill="#0D0D0D"/>
<path d="M46.3625 3.58565C46.3625 2.47637 46.9155 1.77322 47.7664 1.77322C47.9778 1.76308 48.1875 1.81564 48.3712 1.92475C48.5549 2.03387 48.7049 2.19503 48.8036 2.3894H48.8526V0.460449H49.5202V5.34312H48.8811V4.78848H48.8281C48.7218 4.98149 48.5667 5.14061 48.3795 5.24864C48.1924 5.35667 47.9803 5.40949 47.7664 5.40138C46.9061 5.40138 46.3625 4.69658 46.3625 3.58565ZM47.0522 3.58565C47.0522 4.33065 47.3903 4.77863 47.956 4.77863C48.5216 4.77863 48.8661 4.32409 48.8661 3.58894C48.8661 2.85379 48.5145 2.39924 47.9552 2.39924C47.3959 2.39924 47.0514 2.85051 47.0514 3.58894L47.0522 3.58565Z" fill="#0D0D0D"/>
<path d="M52.2806 3.58554C52.259 3.35455 52.2841 3.12143 52.3544 2.90114C52.4247 2.68085 52.5386 2.47827 52.6888 2.30642C52.839 2.13457 53.0221 1.99724 53.2264 1.90326C53.4307 1.80929 53.6517 1.76074 53.8752 1.76074C54.0986 1.76074 54.3196 1.80929 54.5239 1.90326C54.7283 1.99724 54.9114 2.13457 55.0616 2.30642C55.2117 2.47827 55.3256 2.68085 55.3959 2.90114C55.4662 3.12143 55.4914 3.35455 55.4698 3.58554C55.4914 3.81653 55.4662 4.04966 55.3959 4.26995C55.3256 4.49024 55.2117 4.69281 55.0616 4.86467C54.9114 5.03652 54.7283 5.17384 54.5239 5.26782C54.3196 5.36179 54.0986 5.41034 53.8752 5.41034C53.6517 5.41034 53.4307 5.36179 53.2264 5.26782C53.0221 5.17384 52.839 5.03652 52.6888 4.86467C52.5386 4.69281 52.4247 4.49024 52.3544 4.26995C52.2841 4.04966 52.259 3.81653 52.2806 3.58554ZM54.7833 3.58554C54.7833 2.82414 54.4539 2.37944 53.8764 2.37944C53.2989 2.37944 52.9679 2.82332 52.9679 3.58554C52.9679 4.34777 53.2941 4.79493 53.874 4.79493C54.4539 4.79493 54.7849 4.34941 54.7849 3.58554H54.7833Z" fill="#0D0D0D"/>
<path d="M56.3652 1.83155H57.0075V2.38948H57.0573C57.1418 2.18905 57.2844 2.02102 57.4652 1.90879C57.6461 1.79657 57.8561 1.74576 58.0661 1.76345C58.2305 1.75101 58.3955 1.77712 58.5488 1.83982C58.7022 1.90253 58.84 2.00024 58.9521 2.12573C59.0642 2.25122 59.1477 2.40128 59.1965 2.56481C59.2452 2.72834 59.2579 2.90115 59.2337 3.07047V5.3432H58.5701V3.24442C58.5701 2.67993 58.3331 2.39932 57.8402 2.39932C57.7284 2.39394 57.6169 2.4137 57.5132 2.45727C57.4096 2.50084 57.3162 2.56717 57.2395 2.65172C57.1628 2.73628 57.1046 2.83706 57.0689 2.94715C57.0333 3.05724 57.0209 3.17404 57.0328 3.28954V5.34074H56.3652V1.83155Z" fill="#0D0D0D"/>
<path d="M63.0078 0.957764V1.84798H63.7401V2.43216H63.0078V4.23722C63.0078 4.60479 63.1539 4.76643 63.4857 4.76643C63.5707 4.76628 63.6557 4.76107 63.7401 4.75084V5.32517C63.6204 5.34737 63.4991 5.35918 63.3775 5.36046C62.6357 5.36046 62.3402 5.0897 62.3402 4.41198V2.43134H61.8038V1.84716H62.3402V0.957764H63.0078Z" fill="#0D0D0D"/>
<path d="M64.6483 0.460449H65.3095V2.39924H65.3625C65.4511 2.19697 65.5977 2.02801 65.7822 1.91539C65.9667 1.80278 66.1801 1.75198 66.3934 1.76993C66.5574 1.7606 66.7214 1.78905 66.8735 1.85324C67.0257 1.91743 67.1623 2.01577 67.2736 2.14123C67.3849 2.26669 67.4681 2.41615 67.5172 2.57891C67.5664 2.74168 67.5803 2.91371 67.5579 3.0827V5.34968H66.8895V3.2468C66.8895 2.68559 66.6383 2.4017 66.1667 2.4017C66.052 2.39191 65.9366 2.40827 65.8286 2.44963C65.7207 2.49098 65.6227 2.55635 65.5416 2.64114C65.4604 2.72593 65.3981 2.82811 65.359 2.94052C65.3199 3.05293 65.3049 3.17286 65.3151 3.29192V5.34312H64.6483V0.460449Z" fill="#0D0D0D"/>
<path d="M71.4528 4.39476C71.362 4.71569 71.1655 4.99326 70.8976 5.17894C70.6298 5.36462 70.3076 5.44659 69.9874 5.41051C69.7646 5.41661 69.5433 5.3723 69.3387 5.28065C69.1341 5.189 68.9511 5.0522 68.8025 4.87976C68.6539 4.70732 68.5432 4.50336 68.4781 4.28203C68.413 4.06071 68.3951 3.82732 68.4255 3.59808C68.3959 3.36814 68.4141 3.13426 68.4791 2.91229C68.544 2.69031 68.6541 2.48541 68.8019 2.31146C68.9497 2.1375 69.1317 1.99855 69.3357 1.90401C69.5397 1.80947 69.7608 1.76155 69.9842 1.76348C70.9251 1.76348 71.4923 2.43135 71.4923 3.53408V3.77612H69.1057V3.81468C69.0953 3.94356 69.1109 4.07329 69.1515 4.19554C69.1921 4.31779 69.2569 4.42987 69.3417 4.52459C69.4265 4.6193 69.5295 4.69456 69.6439 4.74554C69.7584 4.79651 69.8818 4.82208 70.0063 4.82059C70.1659 4.84043 70.3276 4.81054 70.4708 4.73471C70.614 4.65889 70.7323 4.54056 70.8105 4.39476H71.4528ZM69.1057 3.26332H70.8137C70.8221 3.14542 70.8067 3.027 70.7684 2.91567C70.7301 2.80433 70.6698 2.70255 70.5914 2.61685C70.513 2.53116 70.4182 2.46345 70.3131 2.41808C70.2079 2.37271 70.0948 2.35068 69.981 2.35341C69.8657 2.35198 69.7511 2.37454 69.6443 2.41977C69.5374 2.465 69.4403 2.53198 69.3588 2.61677C69.2772 2.70156 69.2128 2.80245 69.1693 2.91349C69.1259 3.02453 69.1042 3.14347 69.1057 3.26332Z" fill="#0D0D0D"/>
</svg>
