<svg width="11" height="8" viewBox="0 0 11 8" fill="none" xmlns="http://www.w3.org/2000/svg">
<path d="M10.7043 1.1675C10.5169 0.981251 10.2635 0.876709 9.99929 0.876709C9.73511 0.876709 9.48166 0.981251 9.29429 1.1675L5.70429 4.7075L2.16429 1.1675C1.97693 0.981251 1.72348 0.876709 1.45929 0.876709C1.19511 0.876709 0.941657 0.981251 0.754294 1.1675C0.660566 1.26046 0.586171 1.37107 0.535403 1.49292C0.484634 1.61478 0.458496 1.74549 0.458496 1.8775C0.458496 2.00951 0.484634 2.14022 0.535403 2.26208C0.586171 2.38394 0.660566 2.49454 0.754294 2.5875L4.99429 6.8275C5.08726 6.92123 5.19786 6.99562 5.31972 7.04639C5.44158 7.09716 5.57228 7.1233 5.70429 7.1233C5.83631 7.1233 5.96701 7.09716 6.08887 7.04639C6.21073 6.99562 6.32133 6.92123 6.41429 6.8275L10.7043 2.5875C10.798 2.49454 10.8724 2.38394 10.9232 2.26208C10.974 2.14022 11.0001 2.00951 11.0001 1.8775C11.0001 1.74549 10.974 1.61478 10.9232 1.49292C10.8724 1.37107 10.798 1.26046 10.7043 1.1675Z" fill="#848484"/>
</svg>
