<svg width="24" height="24" viewBox="0 0 24 24" fill="none" xmlns="http://www.w3.org/2000/svg">
<path d="M12 24C18.6274 24 24 18.6274 24 12C24 5.37258 18.6274 0 12 0C5.37258 0 0 5.37258 0 12C0 18.6274 5.37258 24 12 24Z" fill="white"/>
<path d="M12 8.86972L23.5866 8.86972C23.2857 7.75343 22.8284 6.70151 22.2387 5.73926L12 5.73926L12 8.86972Z" fill="#338AF3"/>
<path d="M4.53009 21.3912L19.4698 21.3912C20.5649 20.5189 21.5041 19.4595 22.2386 18.2607L1.76123 18.2607C2.49581 19.4594 3.435 20.5189 4.53009 21.3912Z" fill="#338AF3"/>
<path d="M4.17384 2.90332C3.23043 3.71571 2.41486 4.67238 1.76123 5.73907L4.17384 5.73907L4.17384 2.90332Z" fill="#338AF3"/>
<path d="M12 12.0001C12 10.7778 12 9.75482 12 8.86963L7.30434 8.86963L7.30434 12.0001L4.17389 12.0001L4.17389 8.86963L0.413391 8.86963C0.144375 9.86779 0 10.9169 0 12.0001C0 13.0832 0.144375 14.1324 0.413391 15.1305L23.5867 15.1305C23.8556 14.1324 24 13.0832 24 12.0001L12 12.0001Z" fill="#338AF3"/>
<path d="M11.9999 0C10.3335 0 8.74654 0.339984 7.3042 0.953813L7.3042 5.73914L11.9999 5.73914C11.9999 4.64639 11.9999 3.717 11.9999 2.60869L19.4697 2.60869C17.4198 0.976125 14.824 0 11.9999 0Z" fill="#338AF3"/>
</svg>
