<?xml version="1.0" encoding="UTF-8"?>
<svg id="Layer_2" data-name="Layer 2" xmlns="http://www.w3.org/2000/svg" viewBox="0 0 69.44 8.53">
  <defs>
    <style>
      .cls-1 {
        fill: #fff;
      }
    </style>
  </defs>
  <g id="livetype">
    <g id="_Group_4" data-name=" Group 4">
      <g>
        <path class="cls-1" d="m2.16.55c1.45-.1,2.72.99,2.82,2.44.01.17,0,.35-.01.52,0,1.91-1.03,3-2.81,3H0V.55h2.16ZM.93,5.67h1.12c1.03.06,1.92-.73,1.98-1.76,0-.13,0-.26-.02-.39.14-1.03-.58-1.98-1.61-2.12-.12-.02-.24-.02-.36-.01H.93v4.28Z"/>
        <path class="cls-1" d="m10.04,5.3c-.25.85-1.07,1.4-1.95,1.3-1.13.03-2.07-.86-2.1-1.99,0-.11,0-.22.02-.33-.15-1.14.65-2.18,1.78-2.33.1-.01.2-.02.29-.02,1.25,0,2.01.86,2.01,2.27v.31h-3.18v.05c-.06.66.43,1.23,1.09,1.29.04,0,.08,0,.11,0,.43.05.86-.16,1.07-.55h.86Zm-3.13-1.45h2.27c.04-.6-.4-1.12-1-1.16-.04,0-.07,0-.11,0-.64,0-1.16.5-1.17,1.14,0,0,0,.02,0,.03h0Z"/>
        <path class="cls-1" d="m12.93,1.93c1.01,0,1.67.47,1.76,1.27h-.85c-.08-.33-.41-.54-.91-.54s-.87.24-.87.59c0,.27.23.44.72.55l.75.17c.86.2,1.26.57,1.26,1.23,0,.85-.79,1.41-1.87,1.41s-1.77-.48-1.85-1.28h.89c.16.39.56.62.98.56.55,0,.95-.25.95-.61,0-.27-.21-.44-.66-.55l-.79-.18c-.86-.2-1.25-.59-1.25-1.26,0-.8.73-1.36,1.75-1.36Z"/>
        <path class="cls-1" d="m18.93,3.49c-.12-.48-.57-.81-1.06-.76-.74,0-1.2.57-1.2,1.53s.46,1.56,1.2,1.56c.49.06.95-.26,1.06-.74h.86c-.12.95-.97,1.63-1.92,1.53-1.14.04-2.1-.86-2.13-2,0-.12,0-.24.02-.35-.15-1.12.64-2.16,1.76-2.31.11-.02.23-.02.35-.02.96-.09,1.81.6,1.93,1.56h-.86Z"/>
        <path class="cls-1" d="m20.67,5.24c0-.81.6-1.28,1.67-1.34l1.22-.07v-.39c0-.48-.31-.74-.92-.74-.5,0-.84.18-.94.5h-.86c.09-.77.82-1.27,1.84-1.27,1.13,0,1.77.56,1.77,1.51v3.08h-.86v-.63h-.07c-.29.46-.81.73-1.35.71-.75.08-1.42-.47-1.49-1.21,0-.04,0-.09,0-.14Zm1.16-5.24c.03.47.44.82.9.78.42-.03.75-.36.78-.78h.71c-.09.86-.87,1.48-1.73,1.39-.73-.08-1.31-.66-1.39-1.39h.72Zm1.73,4.86v-.38l-1.1.07c-.62.04-.9.25-.9.65s.35.64.83.64c.58.06,1.1-.37,1.16-.95,0-.01,0-.02,0-.04h0Z"/>
        <path class="cls-1" d="m25.84,2.01h.86v.69h.07c.2-.49.69-.8,1.22-.77.13,0,.27.01.4.04v.88c-.16-.03-.33-.05-.5-.05-.58-.05-1.09.38-1.15.96,0,.03,0,.07,0,.1v2.66h-.89V2.01Z"/>
        <path class="cls-1" d="m32.19,3.49c-.12-.48-.57-.81-1.06-.76-.74,0-1.2.57-1.2,1.53s.46,1.56,1.2,1.56c.49.06.95-.26,1.06-.74h.86c-.12.95-.97,1.63-1.92,1.53-1.14.04-2.1-.86-2.13-2,0-.12,0-.23.02-.35-.15-1.12.64-2.16,1.76-2.31.11-.02.23-.02.35-.02.96-.09,1.81.6,1.93,1.56h-.86Z"/>
        <path class="cls-1" d="m33.94,5.24c0-.81.6-1.28,1.67-1.34l1.22-.07v-.39c0-.48-.31-.74-.92-.74-.5,0-.84.18-.94.5h-.86c.09-.77.82-1.27,1.84-1.27,1.13,0,1.77.56,1.77,1.51v3.08h-.86v-.63h-.07c-.29.46-.81.73-1.35.71-.75.08-1.42-.47-1.49-1.21,0-.04,0-.09,0-.14Zm2.89-.38v-.38l-1.1.07c-.62.04-.9.25-.9.65s.35.64.83.64c.58.06,1.1-.37,1.16-.95,0-.01,0-.02,0-.04Z"/>
        <path class="cls-1" d="m40.31,2.78v2.32c0,.47.19.68.64.68.11,0,.23,0,.34-.02v.74c-.16.03-.32.04-.48.05-.07,0-.13,0-.19,0l-.19.48c.55.01.86.26.86.7,0,.49-.38.81-1.04.81-.21,0-.41-.02-.61-.07v-.5c.16.04.33.06.5.06.31,0,.48-.1.48-.28s-.17-.25-.59-.25h-.24v-.4l.27-.65c-.44-.16-.62-.51-.62-1.11v-2.54h-.71v-.75h.71V.89h.89v1.14h.98v.75h-.98Z"/>
        <path class="cls-1" d="m42.35.68c-.02-.32.22-.59.54-.61s.59.22.61.54-.22.59-.54.61c-.01,0-.02,0-.03,0-.3.02-.56-.22-.57-.52,0,0,0-.02,0-.02Zm.13,1.33h.89v4.5h-.89V2.01Z"/>
        <path class="cls-1" d="m47.02,4.26c0-1.42.73-2.32,1.87-2.32.57-.03,1.11.28,1.38.79h.07V.26h.89v6.26h-.85v-.71h-.07c-.29.5-.83.81-1.41.79-1.15,0-1.87-.9-1.87-2.33Zm.92,0c0,.96.45,1.53,1.2,1.53s1.21-.58,1.21-1.53-.47-1.53-1.21-1.53-1.2.58-1.2,1.53Z"/>
        <path class="cls-1" d="m56.49,5.3c-.25.85-1.07,1.4-1.95,1.3-1.13.03-2.07-.86-2.1-1.99,0-.11,0-.22.02-.33-.15-1.14.65-2.18,1.78-2.33.1-.01.2-.02.29-.02,1.25,0,2.01.86,2.01,2.27v.31h-3.18v.05c-.06.66.43,1.23,1.09,1.29.04,0,.08,0,.11,0,.43.05.86-.16,1.07-.55h.86Zm-3.13-1.45h2.27c.04-.6-.4-1.12-1-1.16-.04,0-.07,0-.11,0-.64,0-1.16.5-1.17,1.14,0,0,0,.02,0,.03h0Z"/>
        <path class="cls-1" d="m64.38,4.26c0,1.43-.72,2.33-1.86,2.33-.57.04-1.11-.26-1.38-.76h-.07v2.18h-.89V2.01h.86v.74h.07c.28-.52.83-.83,1.41-.82,1.15,0,1.87.89,1.87,2.32Zm-.91,0c0-.95-.45-1.53-1.2-1.53s-1.22.59-1.22,1.53.47,1.53,1.21,1.53c.76,0,1.21-.57,1.21-1.53Z"/>
        <path class="cls-1" d="m69.38,5.3c-.25.85-1.07,1.4-1.95,1.3-1.13.03-2.07-.86-2.1-1.99,0-.11,0-.22.02-.33-.15-1.14.65-2.18,1.78-2.33.1-.01.2-.02.29-.02,1.25,0,2.01.86,2.01,2.27v.31h-3.18v.05c-.06.66.43,1.23,1.09,1.29.04,0,.08,0,.11,0,.43.05.86-.16,1.07-.55h.86Zm-3.13-1.45h2.27c.04-.6-.4-1.12-1-1.16-.04,0-.07,0-.11,0-.64,0-1.16.5-1.17,1.14,0,0,0,.02,0,.03h0Z"/>
      </g>
    </g>
  </g>
</svg>