<?xml version="1.0" encoding="UTF-8"?>
<svg id="Layer_2" data-name="Layer 2" xmlns="http://www.w3.org/2000/svg" viewBox="0 0 343.33 38.01">
  <defs>
    <style>
      .cls-1 {
        fill: #fff;
      }
    </style>
  </defs>
  <g id="Layer_1-2" data-name="Layer 1">
    <g>
      <path class="cls-1" d="m0,7.54h9.53c3.08,0,5.77.62,8.06,1.87,2.29,1.25,4.05,3,5.29,5.27,1.24,2.26,1.85,4.85,1.85,7.76s-.62,5.5-1.85,7.76c-1.24,2.26-3,4.02-5.29,5.27-2.29,1.25-4.97,1.87-8.06,1.87H0V7.54Zm9.41,25.48c3.39,0,6.02-.94,7.89-2.81,1.87-1.87,2.81-4.46,2.81-7.76s-.94-5.89-2.81-7.76c-1.87-1.87-4.5-2.81-7.89-2.81h-4.83v21.15h4.83Z"/>
      <path class="cls-1" d="m30.72,7.54h18.07v4.33h-13.49v8.41h12.16v4.33h-12.16v8.41h13.49v4.33h-18.07V7.54Z"/>
      <path class="cls-1" d="m56.83,35.84c-1.97-1.44-3.34-3.47-4.12-6.08l4.33-1.75c.44,1.66,1.24,3.03,2.37,4.08s2.51,1.58,4.12,1.58c1.5,0,2.77-.39,3.81-1.17,1.04-.78,1.56-1.85,1.56-3.21,0-1.25-.46-2.28-1.37-3.1-.92-.82-2.5-1.62-4.75-2.39l-1.87-.67c-2.03-.72-3.71-1.73-5.06-3.02-1.35-1.29-2.02-3-2.02-5.14,0-1.47.4-2.83,1.19-4.08.79-1.25,1.9-2.23,3.33-2.96s3.05-1.08,4.85-1.08c2.58,0,4.65.63,6.2,1.89,1.55,1.26,2.61,2.69,3.16,4.27l-4.12,1.75c-.28-1-.86-1.86-1.75-2.58-.89-.72-2.04-1.08-3.46-1.08s-2.51.36-3.46,1.08c-.94.72-1.41,1.64-1.41,2.75,0,1.03.42,1.88,1.27,2.56.85.68,2.16,1.33,3.93,1.94l1.92.67c2.55.89,4.52,2.04,5.91,3.46,1.39,1.42,2.08,3.3,2.08,5.66,0,1.94-.49,3.57-1.48,4.89-.99,1.32-2.25,2.3-3.79,2.94-1.54.64-3.12.96-4.73.96-2.47,0-4.69-.72-6.66-2.16Z"/>
      <path class="cls-1" d="m85.24,35.97c-2.37-1.36-4.24-3.23-5.6-5.62-1.36-2.39-2.04-5.02-2.04-7.91s.68-5.52,2.04-7.91c1.36-2.39,3.23-4.26,5.6-5.62,2.37-1.36,5-2.04,7.89-2.04,4.47,0,8.15,1.62,11.03,4.87l-3.21,3.12c-1.03-1.22-2.17-2.14-3.43-2.75-1.26-.61-2.71-.92-4.35-.92-2.03,0-3.87.46-5.54,1.39-1.66.93-2.98,2.25-3.96,3.96-.97,1.71-1.46,3.67-1.46,5.89s.49,4.18,1.46,5.89c.97,1.71,2.29,3.03,3.96,3.95,1.67.93,3.51,1.4,5.54,1.4,3.39,0,6.23-1.4,8.53-4.21l3.29,3.16c-1.44,1.69-3.18,3.01-5.2,3.96-2.03.94-4.25,1.41-6.66,1.41-2.89,0-5.52-.68-7.89-2.04Z"/>
      <path class="cls-1" d="m119.15,7.54h5.2l11.28,29.81h-5.04l-2.75-7.66h-12.16l-2.75,7.66h-5.04l11.24-29.81Zm7.2,17.9l-3.33-9.14-1.12-3.41h-.25l-1.12,3.41-3.33,9.14h9.16Z"/>
      <path class="cls-1" d="m140.13,7.54h10.45c1.8,0,3.43.39,4.89,1.16,1.46.78,2.61,1.86,3.46,3.25.85,1.39,1.27,2.95,1.27,4.7,0,2-.65,3.77-1.94,5.31-1.29,1.54-2.91,2.58-4.85,3.1l-.04.21,8.2,11.82v.25h-5.29l-7.95-11.7h-3.62v11.7h-4.58V7.54Zm10.32,13.9c1.44,0,2.66-.46,3.64-1.37.98-.91,1.48-2.07,1.48-3.45,0-1.28-.45-2.39-1.35-3.35-.9-.96-2.1-1.44-3.6-1.44h-5.91v9.62h5.75Z"/>
      <path class="cls-1" d="m172.08,35.97c-2.37-1.36-4.24-3.23-5.6-5.62-1.36-2.39-2.04-5.02-2.04-7.91s.68-5.52,2.04-7.91c1.36-2.39,3.23-4.26,5.6-5.62,2.37-1.36,5-2.04,7.89-2.04,4.47,0,8.15,1.62,11.03,4.87l-3.21,3.12c-1.03-1.22-2.17-2.14-3.43-2.75-1.26-.61-2.71-.92-4.35-.92-2.03,0-3.87.46-5.54,1.39-1.67.93-2.98,2.25-3.96,3.96-.97,1.71-1.46,3.67-1.46,5.89s.49,4.18,1.46,5.89c.97,1.71,2.29,3.03,3.96,3.95,1.67.93,3.51,1.4,5.54,1.4,3.39,0,6.23-1.4,8.53-4.21l3.29,3.16c-1.44,1.69-3.18,3.01-5.2,3.96-2.03.94-4.25,1.41-6.66,1.41-2.89,0-5.52-.68-7.89-2.04Z"/>
      <path class="cls-1" d="m205.99,7.54h5.2l11.28,29.81h-5.04l-2.75-7.66h-12.16l-2.75,7.66h-5.04l11.24-29.81Zm-.02-2.87c-.85-.47-1.53-1.12-2.04-1.94-.51-.82-.77-1.73-.77-2.73h3.33c0,.61.19,1.13.58,1.56.39.43.92.65,1.58.65.61,0,1.11-.21,1.5-.65.39-.43.58-.95.58-1.56h3.33c0,1-.25,1.91-.75,2.73-.5.82-1.17,1.46-2,1.94-.83.47-1.72.71-2.66.71s-1.84-.24-2.69-.71Zm7.22,20.77l-3.33-9.14-1.12-3.41h-.25l-1.12,3.41-3.33,9.14h9.16Z"/>
      <path class="cls-1" d="m236.17,7.54h9.53c3.08,0,5.77.62,8.06,1.87,2.29,1.25,4.05,3,5.29,5.27,1.24,2.26,1.85,4.85,1.85,7.76s-.62,5.5-1.85,7.76c-1.24,2.26-3,4.02-5.29,5.27-2.29,1.25-4.97,1.87-8.06,1.87h-9.53V7.54Zm9.41,25.48c3.39,0,6.02-.94,7.89-2.81s2.81-4.46,2.81-7.76-.94-5.89-2.81-7.76c-1.87-1.87-4.5-2.81-7.89-2.81h-4.83v21.15h4.83Z"/>
      <path class="cls-1" d="m266.89,7.54h18.07v4.33h-13.49v8.41h12.16v4.33h-12.16v8.41h13.49v4.33h-18.07V7.54Z"/>
      <path class="cls-1" d="m300.4,7.54h10.24c1.78,0,3.41.39,4.89,1.16,1.48.78,2.66,1.86,3.54,3.25.87,1.39,1.31,2.95,1.31,4.7s-.44,3.32-1.31,4.7c-.88,1.39-2.05,2.47-3.54,3.25-1.49.78-3.12,1.17-4.89,1.17h-5.66v11.57h-4.58V7.54Zm10.37,13.9c1.53,0,2.75-.48,3.68-1.44.93-.96,1.39-2.07,1.39-3.35s-.46-2.39-1.39-3.35c-.93-.96-2.16-1.44-3.68-1.44h-5.79v9.58h5.79Z"/>
      <path class="cls-1" d="m325.26,7.54h18.07v4.33h-13.49v8.41h12.16v4.33h-12.16v8.41h13.49v4.33h-18.07V7.54Z"/>
    </g>
  </g>
</svg>