<svg width="28" height="28" viewBox="0 0 28 28" fill="none" xmlns="http://www.w3.org/2000/svg">
<path d="M0 9.975C0 6.48342 0 4.73763 0.679506 3.40403C1.27722 2.23096 2.23096 1.27722 3.40403 0.679506C4.73763 0 6.48342 0 9.975 0H18.025C21.5166 0 23.2624 0 24.596 0.679506C25.769 1.27722 26.7228 2.23096 27.3205 3.40403C28 4.73763 28 6.48342 28 9.975V18.025C28 21.5166 28 23.2624 27.3205 24.596C26.7228 25.769 25.769 26.7228 24.596 27.3205C23.2624 28 21.5166 28 18.025 28H9.975C6.48342 28 4.73763 28 3.40403 27.3205C2.23096 26.7228 1.27722 25.769 0.679506 24.596C0 23.2624 0 21.5166 0 18.025V9.975Z" fill="#0D0D0D"/>
<path d="M11.4013 13.6287H9.32607V16.3724C9.32413 16.9636 9.73223 17.2241 10.2099 17.2241C10.5929 17.2241 11.03 17.1288 11.3994 16.9636V18.667C11.001 18.8323 10.4962 18.9275 9.92177 18.9275C8.40544 18.9275 7.45 17.9222 7.45194 16.4949V13.6248H5.71899V11.9214H7.45581V10.1499H9.328V11.9233H11.4033V13.6287H11.4013Z" fill="#FF6600"/>
<path d="M19.573 9.73576C19.573 9.03572 20.1068 8.50098 20.8031 8.50098C21.4993 8.50098 22.0312 9.03767 22.0312 9.7377C22.0312 10.4377 21.4974 10.9725 20.8011 10.9725C20.1049 10.9725 19.573 10.4358 19.573 9.73576ZM19.8573 11.9331H21.743L21.7372 18.8012H19.8515L19.8573 11.9331Z" fill="#FF6600"/>
<path d="M15.9909 11.7969C15.1225 11.7969 14.4011 12.1489 13.9446 12.6156V9.04346H12.0724L12.0647 18.7953H13.8402V17.9922C14.3624 18.5678 15.2173 18.9353 16.0044 18.9353C18.041 18.9353 19.3195 17.3389 19.3195 15.3671C19.3195 13.3953 18.0333 11.7989 15.9909 11.7989V11.7969ZM15.6196 17.2047C14.6022 17.2047 13.8847 16.4074 13.8847 15.3593C13.8847 14.3112 14.5887 13.5139 15.6408 13.5139C16.693 13.5139 17.339 14.3501 17.339 15.3593C17.339 16.3685 16.6175 17.2047 15.6176 17.2047H15.6196Z" fill="#FF6600"/>
</svg>
