<svg width="83" height="20" viewBox="0 0 83 20" fill="none" xmlns="http://www.w3.org/2000/svg">
<path d="M26.8293 2.48294C26.8414 2.7528 26.8005 3.02239 26.7091 3.27533C26.6177 3.52828 26.4777 3.75931 26.2977 3.95438C26.0923 4.1715 25.8456 4.34176 25.5732 4.45427C25.3009 4.56679 25.0089 4.61908 24.716 4.60782C24.4233 4.61316 24.1325 4.55742 23.861 4.44393C23.5894 4.33044 23.3426 4.1615 23.1351 3.94712C22.7181 3.51037 22.4841 2.92036 22.4841 2.30546C22.4841 1.69057 22.7181 1.10056 23.1351 0.663807C23.342 0.448365 23.5886 0.278508 23.8603 0.164422C24.1319 0.0503352 24.423 -0.00562998 24.716 -0.000117231C25.0191 0.000345297 25.319 0.0637048 25.5982 0.186234C25.8564 0.292268 26.0866 0.460686 26.2697 0.677521L25.8951 1.06555C25.7491 0.891817 25.5671 0.754721 25.3628 0.66459C25.1584 0.574459 24.937 0.533644 24.7152 0.54522C24.4983 0.541842 24.2829 0.582849 24.0812 0.665899C23.8796 0.74895 23.6957 0.872416 23.54 1.02925C23.2234 1.37137 23.0465 1.8274 23.0465 2.30184C23.0465 2.77627 23.2234 3.2323 23.54 3.57442C23.8553 3.88966 24.2775 4.06352 24.7152 4.05845C24.9368 4.06478 25.1574 4.02452 25.3636 3.94009C25.5698 3.85566 25.7575 3.72881 25.9153 3.56716C26.1357 3.32437 26.2636 3.00671 26.2751 2.67333H24.716V2.14251H26.7974C26.8206 2.25434 26.8313 2.36857 26.8293 2.48294Z" fill="#0D0D0D"/>
<path d="M30.1311 0.642135H28.1763V2.03855H29.9391V2.56533H28.1763V3.96175H30.1311V4.50306H27.6229V0.10083H30.1311V0.642135Z" fill="#0D0D0D"/>
<path d="M32.4619 4.50709H31.9085V0.642135H30.7092V0.10083H33.6627V0.642135H32.4619V4.50709Z" fill="#0D0D0D"/>
<path d="M35.7955 4.50709V0.10083H36.3481V4.50709H35.7955Z" fill="#0D0D0D"/>
<path d="M38.7995 4.50709H38.2508V0.642135H37.0469V0.10083H40.0004V0.642135H38.7995V4.50709Z" fill="#0D0D0D"/>
<path d="M45.5937 3.93987C45.1726 4.36755 44.6067 4.60704 44.0175 4.60704C43.4283 4.60704 42.8625 4.36755 42.4413 3.93987C42.0348 3.49955 41.8079 2.91328 41.8079 2.30346C41.8079 1.69363 42.0348 1.10736 42.4413 0.667039C42.8609 0.23788 43.4264 -0.00268555 44.0156 -0.00268555C44.6047 -0.00268555 45.1702 0.23788 45.5899 0.667039C45.9972 1.10611 46.2247 1.69192 46.2247 2.30144C46.2247 2.91096 45.9972 3.49676 45.5899 3.93584L45.5937 3.93987ZM42.8509 3.5704C43.1622 3.88711 43.5808 4.0645 44.0167 4.0645C44.4527 4.0645 44.8712 3.88711 45.1826 3.5704C45.4905 3.22592 45.6616 2.77337 45.6616 2.30346C45.6616 1.83354 45.4905 1.38099 45.1826 1.03651C44.8712 0.719802 44.4527 0.542408 44.0167 0.542408C43.5808 0.542408 43.1622 0.719802 42.8509 1.03651C42.5429 1.38099 42.3718 1.83354 42.3718 2.30346C42.3718 2.77337 42.5429 3.22592 42.8509 3.5704Z" fill="#0D0D0D"/>
<path d="M47.004 4.50699V0.100734H47.6755L49.7639 3.52765H49.788L49.7639 2.6806V0.0991211H50.3165V4.50538H49.739L47.5519 0.909866H47.5278L47.5519 1.76095V4.50377H47.0032L47.004 4.50699Z" fill="#0D0D0D"/>
<path d="M41.6721 10.9414C41.2715 10.9311 40.873 11.0046 40.5004 11.1575C40.1277 11.3103 39.7885 11.5394 39.5029 11.8312C39.2173 12.1229 38.9912 12.4713 38.8381 12.8557C38.6849 13.24 38.6078 13.6524 38.6114 14.0682C38.6091 14.4834 38.687 14.8948 38.8404 15.2782C38.9939 15.6616 39.2198 16.0093 39.5048 16.3006C39.7898 16.5919 40.1281 16.821 40.4998 16.9743C40.8715 17.1277 41.2691 17.2022 41.669 17.1934C42.0691 17.2025 42.467 17.1282 42.839 16.975C43.211 16.8218 43.5497 16.5928 43.835 16.3015C44.1203 16.0102 44.3465 15.6624 44.5002 15.2789C44.6539 14.8953 44.7319 14.4837 44.7297 14.0682C44.7332 13.6527 44.6561 13.2406 44.5031 12.8566C44.3501 12.4725 44.1243 12.1243 43.839 11.8326C43.5538 11.5409 43.215 11.3117 42.8428 11.1586C42.4705 11.0055 42.0724 10.9317 41.6721 10.9414ZM41.6721 15.9624C41.4386 15.9581 41.2083 15.9053 40.9947 15.8072C40.7811 15.7091 40.5887 15.5676 40.4286 15.3911C40.2685 15.2146 40.1441 15.0066 40.0627 14.7794C39.9812 14.5522 39.9444 14.3104 39.9544 14.0682C39.9431 13.8257 39.979 13.5833 40.06 13.3554C40.1409 13.1276 40.2653 12.919 40.4256 12.7422C40.5859 12.5653 40.7789 12.4238 40.9931 12.3261C41.2072 12.2283 41.4382 12.1764 41.6721 12.1733C41.9062 12.1763 42.1374 12.2281 42.3518 12.3258C42.5662 12.4234 42.7595 12.5649 42.9202 12.7417C43.0808 12.9185 43.2055 13.1271 43.2869 13.355C43.3682 13.5829 43.4045 13.8255 43.3937 14.0682C43.4033 14.3107 43.3662 14.5527 43.2844 14.78C43.2026 15.0073 43.0778 15.2153 42.9174 15.3918C42.757 15.5683 42.5642 15.7097 42.3503 15.8077C42.1364 15.9057 41.9058 15.9583 41.6721 15.9624ZM35.0011 10.9414C34.6008 10.9312 34.2025 11.0048 33.8301 11.1577C33.4577 11.3105 33.1188 11.5396 32.8335 11.8313C32.5482 12.123 32.3224 12.4713 32.1695 12.8555C32.0166 13.2396 31.9397 13.6518 31.9435 14.0674C31.9409 14.4827 32.0185 14.8943 32.1719 15.2778C32.3252 15.6614 32.5511 16.0091 32.8362 16.3005C33.1212 16.5919 33.4597 16.821 33.8316 16.9742C34.2034 17.1274 34.6011 17.2017 35.0011 17.1926C35.4011 17.2016 35.7987 17.1272 36.1705 16.974C36.5423 16.8207 36.8808 16.5916 37.1658 16.3003C37.4509 16.0089 37.6768 15.6612 37.8301 15.2777C37.9835 14.8942 38.0612 14.4827 38.0587 14.0674C38.0624 13.6518 37.9855 13.2397 37.8325 12.8556C37.6796 12.4715 37.4538 12.1232 37.1685 11.8316C36.8832 11.5399 36.5443 11.3108 36.1719 11.1579C35.7996 11.005 35.4014 10.9313 35.0011 10.9414ZM35.0011 15.9624C34.7673 15.9584 34.5367 15.9059 34.3228 15.8079C34.1089 15.71 33.916 15.5686 33.7555 15.3921C33.5951 15.2155 33.4703 15.0075 33.3886 14.7801C33.3068 14.5527 33.2698 14.3107 33.2795 14.0682C33.2686 13.8254 33.3048 13.5828 33.3861 13.3549C33.4674 13.1269 33.5921 12.9183 33.7528 12.7415C33.9135 12.5646 34.1068 12.4232 34.3213 12.3256C34.5357 12.2279 34.7669 12.1761 35.0011 12.1733C35.235 12.1764 35.466 12.2283 35.6802 12.3261C35.8943 12.4238 36.0873 12.5653 36.2476 12.7422C36.4079 12.919 36.5323 13.1276 36.6132 13.3554C36.6942 13.5833 36.7301 13.8257 36.7188 14.0682C36.7288 14.3104 36.692 14.5522 36.6105 14.7794C36.5291 15.0066 36.4047 15.2146 36.2446 15.3911C36.0846 15.5676 35.8921 15.7091 35.6785 15.8072C35.4649 15.9053 35.2346 15.9581 35.0011 15.9624ZM27.0624 11.8998V13.2285H30.1551C30.1116 13.851 29.8648 14.4394 29.4555 14.8967C29.1433 15.2206 28.7698 15.4738 28.3586 15.6404C27.9474 15.807 27.5074 15.8834 27.0663 15.8648C26.6196 15.8673 26.1768 15.7776 25.7637 15.6012C25.3505 15.4247 24.9753 15.1648 24.6596 14.8367C24.344 14.5085 24.0942 14.1186 23.9248 13.6895C23.7555 13.2604 23.6698 12.8007 23.6729 12.337C23.6703 11.874 23.7561 11.4149 23.9254 10.9865C24.0947 10.558 24.3442 10.1687 24.6594 9.84092C24.9745 9.51317 25.3492 9.25352 25.7617 9.077C26.1742 8.90048 26.6163 8.81059 27.0624 8.81251C27.9294 8.79803 28.767 9.13824 29.3941 9.75959L30.3066 8.82381C29.8779 8.38972 29.3707 8.04798 28.8142 7.81829C28.2576 7.58859 27.6628 7.47548 27.064 7.48547C25.8092 7.47695 24.6017 7.98171 23.7028 8.89049C22.804 9.79927 22.2862 11.0389 22.2615 12.3411C22.2862 13.6432 22.804 14.8829 23.7028 15.7917C24.6017 16.7004 25.8092 17.2052 27.064 17.1967C27.6759 17.2234 28.2863 17.1157 28.8554 16.8808C29.4245 16.6459 29.9394 16.2889 30.3665 15.8333C31.1188 14.9932 31.521 13.8787 31.4857 12.7323C31.4877 12.4542 31.4643 12.1765 31.4157 11.903H27.0632L27.0624 11.8998ZM59.5236 12.9267C59.3375 12.3576 58.9873 11.8616 58.5204 11.506C58.0535 11.1504 57.4926 10.9525 56.9137 10.939C56.5243 10.9386 56.1389 11.0202 55.7808 11.1789C55.4227 11.3377 55.0994 11.5703 54.8305 11.8626C54.5616 12.1548 54.3527 12.5008 54.2165 12.8794C54.0802 13.258 54.0195 13.6613 54.0379 14.065C54.0314 14.4783 54.1053 14.8887 54.2551 15.2717C54.4048 15.6547 54.6274 16.0024 54.9096 16.2941C55.1917 16.5858 55.5276 16.8155 55.8972 16.9695C56.2667 17.1234 56.6624 17.1985 57.0605 17.1902C57.5612 17.195 58.0552 17.071 58.4984 16.8293C58.9417 16.5876 59.3203 16.2357 59.6006 15.8051L58.5614 15.0952C58.4041 15.3613 58.1833 15.5807 57.9204 15.7322C57.6575 15.8837 57.3613 15.9622 57.0605 15.96C56.7516 15.9725 56.446 15.889 56.1829 15.7203C55.9199 15.5516 55.7113 15.3053 55.5838 15.0129L59.6596 13.2833L59.5189 12.9276L59.5236 12.9267ZM55.3685 13.9674C55.3557 13.7388 55.387 13.5098 55.4604 13.2939C55.5338 13.0779 55.648 12.8794 55.7961 12.7097C55.9443 12.5401 56.1236 12.4027 56.3235 12.3058C56.5234 12.2088 56.7398 12.1542 56.9603 12.145C57.191 12.1288 57.4213 12.1829 57.6227 12.3007C57.8242 12.4185 57.9881 12.5949 58.0943 12.8082L55.3693 13.9674H55.3685ZM52.0575 17.0031H53.3974V7.81622H52.0575V17.0031ZM49.861 11.636H49.816C49.6113 11.4093 49.3628 11.2301 49.0868 11.1101C48.8107 10.9901 48.5133 10.9321 48.2141 10.9398C47.4296 10.965 46.6855 11.3071 46.1404 11.8933C45.5953 12.4794 45.2922 13.2633 45.2956 14.0779C45.2947 14.8902 45.5997 15.6707 46.1456 16.2527C46.6914 16.8348 47.4349 17.1724 48.2172 17.1934C48.5177 17.2015 48.8163 17.1423 49.0927 17.0198C49.3691 16.8973 49.6169 16.7144 49.8191 16.4835H49.8641V16.9321C49.8965 17.1684 49.8779 17.4091 49.8097 17.6371C49.7416 17.865 49.6256 18.0744 49.47 18.2502C49.3145 18.426 49.1233 18.5637 48.9103 18.6536C48.6973 18.7434 48.4677 18.7831 48.2382 18.7698C47.9046 18.7619 47.5807 18.6516 47.3074 18.4529C47.034 18.2542 46.8235 17.976 46.7024 17.6533L45.5365 18.1518C45.7596 18.7029 46.1355 19.1729 46.6164 19.5019C47.0972 19.831 47.6614 20.0043 48.2374 20C49.8082 20 51.1334 19.0521 51.1334 16.7449V11.1318H49.861V11.636ZM48.3268 15.9624C48.0954 15.957 47.8674 15.9036 47.6561 15.8054C47.4449 15.7072 47.2547 15.5662 47.0967 15.3906C46.9387 15.215 46.8161 15.0085 46.7361 14.7831C46.6561 14.5576 46.6203 14.3179 46.6309 14.0779C46.6192 13.8366 46.654 13.5953 46.7334 13.3682C46.8127 13.141 46.9349 12.9326 47.0929 12.7551C47.2508 12.5777 47.4413 12.4347 47.6532 12.3347C47.8651 12.2346 48.0941 12.1795 48.3268 12.1725C48.556 12.1818 48.781 12.2391 48.9883 12.3409C49.1957 12.4427 49.3811 12.5868 49.5335 12.7647C49.6859 12.9427 49.8021 13.1507 49.8752 13.3763C49.9483 13.6019 49.9768 13.8406 49.959 14.0779C49.9757 14.314 49.9464 14.5511 49.8726 14.7751C49.7989 14.999 49.6823 15.2052 49.5298 15.3812C49.3774 15.5572 49.1922 15.6995 48.9855 15.7993C48.7787 15.8992 48.5547 15.9547 48.3268 15.9624ZM65.7935 7.81461H62.589V17.0014H63.9251V13.5205H65.7904C66.1647 13.5364 66.5382 13.475 66.8893 13.3397C67.2404 13.2044 67.5621 12.998 67.8357 12.7325C68.1092 12.467 68.3292 12.1476 68.4827 11.7931C68.6362 11.4385 68.7203 11.0558 68.7299 10.6671C68.7199 10.2787 68.6357 9.89614 68.482 9.54175C68.3284 9.18737 68.1084 8.86821 67.835 8.60281C67.5615 8.33741 67.2399 8.13106 66.8889 7.99575C66.5379 7.86044 66.1645 7.79887 65.7904 7.81461H65.7935ZM65.8285 12.2427H63.9251V9.09244H65.8285C66.2373 9.08618 66.6319 9.24844 66.9256 9.54363C67.2193 9.83881 67.3883 10.2428 67.3954 10.6671C67.3863 11.0905 67.2171 11.4932 66.9243 11.7883C66.6316 12.0834 66.2389 12.2471 65.8309 12.2443L65.8285 12.2427ZM74.0882 10.9221C73.6025 10.8918 73.1188 11.0087 72.6958 11.2584C72.2729 11.5082 71.929 11.8801 71.706 12.329L72.892 12.8388C73.0107 12.6157 73.1893 12.4331 73.406 12.3132C73.6228 12.1933 73.8684 12.1414 74.1131 12.1636C74.4504 12.1279 74.7876 12.2321 75.0512 12.4535C75.3147 12.6749 75.4832 12.9956 75.5198 13.3454V13.4422C75.0888 13.206 74.6083 13.0838 74.1208 13.0865C72.8438 13.0865 71.5427 13.8077 71.5427 15.1533C71.5564 15.4391 71.6253 15.7192 71.7452 15.9769C71.8652 16.2346 72.0338 16.4647 72.2411 16.6535C72.4483 16.8422 72.69 16.9859 72.9517 17.0759C73.2135 17.1659 73.49 17.2003 73.7649 17.1773C74.1012 17.1985 74.437 17.1262 74.7375 16.968C75.038 16.8097 75.2925 16.5712 75.4748 16.277H75.5206V16.9869H76.8108V13.4624C76.8124 11.8361 75.6263 10.9245 74.0905 10.9245L74.0882 10.9221ZM73.9273 15.9568C73.4905 15.9568 72.8811 15.7341 72.8811 15.1783C72.8811 14.4676 73.6405 14.1941 74.298 14.1941C74.7244 14.1835 75.1459 14.2901 75.5198 14.5031C75.4685 14.904 75.2793 15.2722 74.9871 15.5397C74.6948 15.8073 74.3193 15.9563 73.9296 15.9592L73.9273 15.9568ZM81.5115 11.1237L79.9781 15.1049H79.9322L78.3443 11.1221H76.9033L79.2894 16.6884L77.9285 19.7854H79.3275L83.0038 11.1229L81.5115 11.1237ZM69.4644 17.0014H70.8044V7.81622H69.4675L69.4644 17.0014Z" fill="#0D0D0D"/>
<path d="M0.332558 0.49538C0.0969251 0.782096 -0.0220837 1.15267 0.000679045 1.52878V17.7824C-0.0220837 18.1585 0.0969251 18.5291 0.332558 18.8158L0.384634 18.865L9.26375 9.76127V9.54669L0.384634 0.442139L0.332558 0.49538Z" fill="url(#paint0_linear_1379_1069)"/>
<path d="M12.2197 12.7976L9.26624 9.76111V9.5433L12.2259 6.50684L12.292 6.54636L15.7973 8.59219C16.7976 9.17302 16.7976 10.1249 15.7973 10.7122L12.292 12.7548L12.2221 12.7943L12.2197 12.7976Z" fill="url(#paint1_linear_1379_1069)"/>
<path d="M12.2897 12.758L9.26391 9.65381L0.333496 18.8164C0.538891 19.001 0.799442 19.1061 1.07099 19.1141C1.34254 19.122 1.60838 19.0322 1.82345 18.86L12.2897 12.7588" fill="url(#paint2_linear_1379_1069)"/>
<path d="M12.2896 6.54979L1.8226 0.448633C1.60688 0.277557 1.34097 0.188817 1.06961 0.197339C0.798255 0.20586 0.538003 0.311125 0.332642 0.495424L9.26305 9.65402L12.2896 6.54979Z" fill="url(#paint3_linear_1379_1069)"/>
<defs>
<linearGradient id="paint0_linear_1379_1069" x1="14.1746" y1="155.987" x2="-3.66331" y2="151.36" gradientUnits="userSpaceOnUse">
<stop stop-color="#00A0FF"/>
<stop offset="0.007" stop-color="#00A1FF"/>
<stop offset="0.26" stop-color="#00BEFF"/>
<stop offset="0.512" stop-color="#00D2FF"/>
<stop offset="0.76" stop-color="#00DFFF"/>
<stop offset="1" stop-color="#00E3FF"/>
</linearGradient>
<linearGradient id="paint1_linear_1379_1069" x1="24.9502" y1="145.689" x2="3.28099" y2="145.689" gradientUnits="userSpaceOnUse">
<stop stop-color="#FFE000"/>
<stop offset="0.409" stop-color="#FFBD00"/>
<stop offset="0.775" stop-color="#FFA500"/>
<stop offset="1" stop-color="#FF9C00"/>
</linearGradient>
<linearGradient id="paint2_linear_1379_1069" x1="16.8809" y1="153.079" x2="2.05055" y2="128.763" gradientUnits="userSpaceOnUse">
<stop stop-color="#FF3A44"/>
<stop offset="1" stop-color="#C31162"/>
</linearGradient>
<linearGradient id="paint3_linear_1379_1069" x1="1.18159" y1="154.492" x2="7.79614" y2="143.634" gradientUnits="userSpaceOnUse">
<stop stop-color="#32A071"/>
<stop offset="0.068" stop-color="#2DA771"/>
<stop offset="0.476" stop-color="#15CF74"/>
<stop offset="0.801" stop-color="#06E775"/>
<stop offset="1" stop-color="#00F076"/>
</linearGradient>
</defs>
</svg>
