<svg width="20" height="18" viewBox="0 0 20 18" fill="none" xmlns="http://www.w3.org/2000/svg">
<path fill-rule="evenodd" clip-rule="evenodd" d="M18.519 1.481C17.57 0.53 16.28 0 14.939 0H5.06C3.22139 0 1.61631 0.973783 0.730397 2.43205L9.31247 9.29771C9.71421 9.6191 10.2851 9.6191 10.6868 9.29771L19.2676 2.43309C19.0591 2.0901 18.8085 1.77018 18.519 1.481ZM19.9295 4.20866L11.8112 10.7033C10.7521 11.5506 9.24715 11.5506 8.18802 10.7033L0.0696922 4.20861C0.0238517 4.48223 0 4.76331 0 5.05V12.95C0 15.74 2.269 18 5.06 18H14.939C17.73 18 20 15.74 20 12.95V5.05C20 4.766 19.9761 4.48469 19.9295 4.20866Z" fill="#FF6600"/>
</svg>
