<svg width="24" height="24" viewBox="0 0 24 24" fill="none" xmlns="http://www.w3.org/2000/svg">
<path fill-rule="evenodd" clip-rule="evenodd" d="M7.05469 0.0703125C8.33438 0.0140625 8.74219 0 12 0C15.2578 0 15.6656 0.0140625 16.95 0.075C18.225 0.13125 19.0969 0.3375 19.8609 0.632812C20.6484 0.9375 21.3188 1.35 21.9844 2.01562C22.6547 2.68125 23.0625 3.35156 23.3578 4.14844C23.6531 4.90781 23.8594 5.78438 23.9156 7.05938C23.9719 8.33906 23.9859 8.74688 23.9859 12.0047C23.9859 15.2625 23.9719 15.6703 23.9156 16.95C23.8594 18.225 23.6531 19.0969 23.3578 19.8609C23.0531 20.6484 22.6406 21.3188 21.975 21.9844C21.3094 22.65 20.6391 23.0625 19.8516 23.3672C19.0922 23.6625 18.2156 23.8687 16.9406 23.925C15.6609 23.9812 15.2531 23.9953 11.9953 23.9953C8.7375 23.9953 8.32969 23.9812 7.05 23.925C5.775 23.8687 4.90313 23.6625 4.13906 23.3672C3.35156 23.0625 2.68125 22.65 2.01563 21.9844C1.34531 21.3188 0.9375 20.6484 0.628125 19.8563C0.332812 19.0969 0.126563 18.2203 0.0703125 16.9453C0.0140625 15.6656 0 15.2578 0 12C0 8.74219 0.0140625 8.33437 0.0703125 7.05C0.126563 5.775 0.332812 4.90313 0.628125 4.13906C0.9375 3.35156 1.34531 2.68125 2.01563 2.01562C2.68125 1.34531 3.35156 0.9375 4.14375 0.628125C4.90313 0.332812 5.77969 0.126563 7.05469 0.0703125ZM19.8469 5.59238C19.8469 6.38926 19.2 7.03145 18.4078 7.03145C17.6109 7.03145 16.9688 6.38457 16.9688 5.59238C16.9688 4.79551 17.6156 4.15332 18.4078 4.15332C19.2 4.15332 19.8469 4.8002 19.8469 5.59238ZM12 5.83594C8.59688 5.83594 5.83594 8.59688 5.83594 12C5.83594 15.4031 8.59688 18.1641 12 18.1641C15.4031 18.1641 18.1641 15.4031 18.1641 12C18.1641 8.59688 15.4031 5.83594 12 5.83594ZM12 15.9984C9.79219 15.9984 8.00156 14.2078 8.00156 12C8.00156 9.79219 9.79219 8.00156 12 8.00156C14.2078 8.00156 15.9984 9.79219 15.9984 12C15.9984 14.2078 14.2078 15.9984 12 15.9984Z" fill="#595959"/>
</svg>
