<svg width="24" height="30" viewBox="0 0 24 30" fill="none" xmlns="http://www.w3.org/2000/svg">
<mask id="mask0_2377_55" style="mask-type:alpha" maskUnits="userSpaceOnUse" x="0" y="0" width="24" height="30">
<path d="M0 4.52459C0 2.39168 0 1.32522 0.662611 0.662611C1.32522 0 2.39168 0 4.52459 0H16.918L20.6557 3.5625L24 6.75V25.4754C24 27.6083 24 28.6748 23.3374 29.3374C22.6748 30 21.6083 30 19.4754 30H4.52459C2.39168 30 1.32522 30 0.662611 29.3374C0 28.6748 0 27.6083 0 25.4754V4.52459Z" fill="#1D1F2E"/>
</mask>
<g mask="url(#mask0_2377_55)">
<path d="M0 4.52459C0 2.39168 0 1.32522 0.662611 0.662611C1.32522 0 2.39168 0 4.52459 0H18.8852L21.4426 2.4375L24 4.875V25.4754C24 27.6083 24 28.6748 23.3374 29.3374C22.6748 30 21.6083 30 19.4754 30H4.52459C2.39168 30 1.32522 30 0.662611 29.3374C0 28.6748 0 27.6083 0 25.4754V4.52459Z" fill="#1D1F2E"/>
<path d="M16.9177 0L20.6554 3.5625L23.9997 6.75H23.2128H21.4423C19.3094 6.75 18.2429 6.75 17.5803 6.08739C16.9177 5.42478 16.9177 4.35832 16.9177 2.22541V0.75V0Z" fill="#737584"/>
<path d="M6 21.3636H6.92258V19.9489H7.69815C8.7017 19.9489 9.28551 19.3501 9.28551 18.4787C9.28551 17.6115 8.71236 17 7.72159 17H6V21.3636ZM6.92258 19.2095V17.7543H7.54474C8.07741 17.7543 8.33523 18.044 8.33523 18.4787C8.33523 18.9112 8.07741 19.2095 7.549 19.2095H6.92258ZM11.4316 21.3636C12.7612 21.3636 13.5666 20.5412 13.5666 19.1776C13.5666 17.8182 12.7612 17 11.4444 17H9.88476V21.3636H11.4316ZM10.8074 20.5732V17.7905H11.3954C12.2136 17.7905 12.6461 18.2081 12.6461 19.1776C12.6461 20.1513 12.2136 20.5732 11.3933 20.5732H10.8074ZM14.25 21.3636H15.1726V19.5611H16.9474V18.8004H15.1726V17.7607H17.1392V17H14.25V21.3636Z" fill="white"/>
</g>
</svg>
