<svg width="78" height="78" viewBox="0 0 78 78" fill="none" xmlns="http://www.w3.org/2000/svg">
<path d="M31.2414 0.206787H28.1379V3.31024H31.2414V0.206787Z" fill="black"/>
<path d="M34.3447 0.206787H31.2412V3.31024H34.3447V0.206787Z" fill="black"/>
<path d="M49.862 0.206787H46.7585V3.31024H49.862V0.206787Z" fill="black"/>
<path d="M52.9655 0.206787H49.8621V3.31024H52.9655V0.206787Z" fill="black"/>
<path d="M34.3447 3.3103H31.2412V6.41375H34.3447V3.3103Z" fill="black"/>
<path d="M37.4482 3.3103H34.3447V6.41375H37.4482V3.3103Z" fill="black"/>
<path d="M40.5517 3.3103H37.4482V6.41375H40.5517V3.3103Z" fill="black"/>
<path d="M43.655 3.3103H40.5515V6.41375H43.655V3.3103Z" fill="black"/>
<path d="M49.862 3.3103H46.7585V6.41375H49.862V3.3103Z" fill="black"/>
<path d="M31.2414 6.41382H28.1379V9.51727H31.2414V6.41382Z" fill="black"/>
<path d="M46.7585 6.41382H43.655V9.51727H46.7585V6.41382Z" fill="black"/>
<path d="M49.862 6.41382H46.7585V9.51727H49.862V6.41382Z" fill="black"/>
<path d="M37.4482 9.51709H34.3447V12.6205H37.4482V9.51709Z" fill="black"/>
<path d="M40.5517 9.51709H37.4482V12.6205H40.5517V9.51709Z" fill="black"/>
<path d="M46.7585 9.51709H43.655V12.6205H46.7585V9.51709Z" fill="black"/>
<path d="M31.2414 12.6206H28.1379V15.7241H31.2414V12.6206Z" fill="black"/>
<path d="M37.4482 12.6206H34.3447V15.7241H37.4482V12.6206Z" fill="black"/>
<path d="M43.655 12.6206H40.5515V15.7241H43.655V12.6206Z" fill="black"/>
<path d="M46.7585 12.6206H43.655V15.7241H46.7585V12.6206Z" fill="black"/>
<path d="M49.862 12.6206H46.7585V15.7241H49.862V12.6206Z" fill="black"/>
<path d="M28.1379 15.7241H25.0344V18.8276H28.1379V15.7241Z" fill="black"/>
<path d="M31.2414 15.7241H28.1379V18.8276H31.2414V15.7241Z" fill="black"/>
<path d="M34.3447 15.7241H31.2412V18.8276H34.3447V15.7241Z" fill="black"/>
<path d="M37.4482 15.7241H34.3447V18.8276H37.4482V15.7241Z" fill="black"/>
<path d="M40.5517 15.7241H37.4482V18.8276H40.5517V15.7241Z" fill="black"/>
<path d="M43.655 15.7241H40.5515V18.8276H43.655V15.7241Z" fill="black"/>
<path d="M49.862 15.7241H46.7585V18.8276H49.862V15.7241Z" fill="black"/>
<path d="M52.9655 15.7241H49.8621V18.8276H52.9655V15.7241Z" fill="black"/>
<path d="M28.1379 18.8276H25.0344V21.9311H28.1379V18.8276Z" fill="black"/>
<path d="M34.3447 18.8276H31.2412V21.9311H34.3447V18.8276Z" fill="black"/>
<path d="M40.5517 18.8276H37.4482V21.9311H40.5517V18.8276Z" fill="black"/>
<path d="M46.7585 18.8276H43.655V21.9311H46.7585V18.8276Z" fill="black"/>
<path d="M52.9655 18.8276H49.8621V21.9311H52.9655V18.8276Z" fill="black"/>
<path d="M31.2414 21.9309H28.1379V25.0344H31.2414V21.9309Z" fill="black"/>
<path d="M37.4482 21.9309H34.3447V25.0344H37.4482V21.9309Z" fill="black"/>
<path d="M52.9655 21.9309H49.8621V25.0344H52.9655V21.9309Z" fill="black"/>
<path d="M3.31024 25.0344H0.206787V28.1379H3.31024V25.0344Z" fill="black"/>
<path d="M12.6205 25.0344H9.51709V28.1379H12.6205V25.0344Z" fill="black"/>
<path d="M18.8276 25.0344H15.7241V28.1379H18.8276V25.0344Z" fill="black"/>
<path d="M21.9308 25.0344H18.8274V28.1379H21.9308V25.0344Z" fill="black"/>
<path d="M28.1379 25.0344H25.0344V28.1379H28.1379V25.0344Z" fill="black"/>
<path d="M31.2414 25.0344H28.1379V28.1379H31.2414V25.0344Z" fill="black"/>
<path d="M40.5517 25.0344H37.4482V28.1379H40.5517V25.0344Z" fill="black"/>
<path d="M43.655 25.0344H40.5515V28.1379H43.655V25.0344Z" fill="black"/>
<path d="M49.862 25.0344H46.7585V28.1379H49.862V25.0344Z" fill="black"/>
<path d="M52.9655 25.0344H49.8621V28.1379H52.9655V25.0344Z" fill="black"/>
<path d="M56.0688 25.0344H52.9653V28.1379H56.0688V25.0344Z" fill="black"/>
<path d="M62.2758 25.0344H59.1724V28.1379H62.2758V25.0344Z" fill="black"/>
<path d="M3.31024 28.1379H0.206787V31.2414H3.31024V28.1379Z" fill="black"/>
<path d="M6.41375 28.1379H3.3103V31.2414H6.41375V28.1379Z" fill="black"/>
<path d="M12.6205 28.1379H9.51709V31.2414H12.6205V28.1379Z" fill="black"/>
<path d="M25.0344 28.1379H21.9309V31.2414H25.0344V28.1379Z" fill="black"/>
<path d="M28.1379 28.1379H25.0344V31.2414H28.1379V28.1379Z" fill="black"/>
<path d="M52.9655 28.1379H49.8621V31.2414H52.9655V28.1379Z" fill="black"/>
<path d="M56.0688 28.1379H52.9653V31.2414H56.0688V28.1379Z" fill="black"/>
<path d="M59.1723 28.1379H56.0688V31.2414H59.1723V28.1379Z" fill="black"/>
<path d="M77.7929 28.1379H74.6895V31.2414H77.7929V28.1379Z" fill="black"/>
<path d="M6.41375 31.2412H3.3103V34.3447H6.41375V31.2412Z" fill="black"/>
<path d="M9.51702 31.2412H6.41357V34.3447H9.51702V31.2412Z" fill="black"/>
<path d="M12.6205 31.2412H9.51709V34.3447H12.6205V31.2412Z" fill="black"/>
<path d="M15.7241 31.2412H12.6206V34.3447H15.7241V31.2412Z" fill="black"/>
<path d="M18.8276 31.2412H15.7241V34.3447H18.8276V31.2412Z" fill="black"/>
<path d="M21.9308 31.2412H18.8274V34.3447H21.9308V31.2412Z" fill="black"/>
<path d="M25.0344 31.2412H21.9309V34.3447H25.0344V31.2412Z" fill="black"/>
<path d="M28.1379 31.2412H25.0344V34.3447H28.1379V31.2412Z" fill="black"/>
<path d="M59.1723 31.2412H56.0688V34.3447H59.1723V31.2412Z" fill="black"/>
<path d="M62.2758 31.2412H59.1724V34.3447H62.2758V31.2412Z" fill="black"/>
<path d="M65.3791 31.2412H62.2756V34.3447H65.3791V31.2412Z" fill="black"/>
<path d="M74.6896 31.2412H71.5862V34.3447H74.6896V31.2412Z" fill="black"/>
<path d="M77.7929 31.2412H74.6895V34.3447H77.7929V31.2412Z" fill="black"/>
<path d="M3.31024 34.3447H0.206787V37.4482H3.31024V34.3447Z" fill="black"/>
<path d="M12.6205 34.3447H9.51709V37.4482H12.6205V34.3447Z" fill="black"/>
<path d="M28.1379 34.3447H25.0344V37.4482H28.1379V34.3447Z" fill="black"/>
<path d="M52.9655 34.3447H49.8621V37.4482H52.9655V34.3447Z" fill="black"/>
<path d="M59.1723 34.3447H56.0688V37.4482H59.1723V34.3447Z" fill="black"/>
<path d="M65.3791 34.3447H62.2756V37.4482H65.3791V34.3447Z" fill="black"/>
<path d="M6.41375 37.4482H3.3103V40.5517H6.41375V37.4482Z" fill="black"/>
<path d="M9.51702 37.4482H6.41357V40.5517H9.51702V37.4482Z" fill="black"/>
<path d="M15.7241 37.4482H12.6206V40.5517H15.7241V37.4482Z" fill="black"/>
<path d="M21.9308 37.4482H18.8274V40.5517H21.9308V37.4482Z" fill="black"/>
<path d="M28.1379 37.4482H25.0344V40.5517H28.1379V37.4482Z" fill="black"/>
<path d="M52.9655 37.4482H49.8621V40.5517H52.9655V37.4482Z" fill="black"/>
<path d="M56.0688 37.4482H52.9653V40.5517H56.0688V37.4482Z" fill="black"/>
<path d="M59.1723 37.4482H56.0688V40.5517H59.1723V37.4482Z" fill="black"/>
<path d="M62.2758 37.4482H59.1724V40.5517H62.2758V37.4482Z" fill="black"/>
<path d="M68.4826 37.4482H65.3792V40.5517H68.4826V37.4482Z" fill="black"/>
<path d="M74.6896 37.4482H71.5862V40.5517H74.6896V37.4482Z" fill="black"/>
<path d="M77.7929 37.4482H74.6895V40.5517H77.7929V37.4482Z" fill="black"/>
<path d="M6.41375 40.5518H3.3103V43.6552H6.41375V40.5518Z" fill="black"/>
<path d="M12.6205 40.5518H9.51709V43.6552H12.6205V40.5518Z" fill="black"/>
<path d="M18.8276 40.5518H15.7241V43.6552H18.8276V40.5518Z" fill="black"/>
<path d="M56.0688 40.5518H52.9653V43.6552H56.0688V40.5518Z" fill="black"/>
<path d="M59.1723 40.5518H56.0688V43.6552H59.1723V40.5518Z" fill="black"/>
<path d="M62.2758 40.5518H59.1724V43.6552H62.2758V40.5518Z" fill="black"/>
<path d="M68.4826 40.5518H65.3792V43.6552H68.4826V40.5518Z" fill="black"/>
<path d="M71.5861 40.5518H68.4827V43.6552H71.5861V40.5518Z" fill="black"/>
<path d="M77.7929 40.5518H74.6895V43.6552H77.7929V40.5518Z" fill="black"/>
<path d="M3.31024 43.655H0.206787V46.7585H3.31024V43.655Z" fill="black"/>
<path d="M9.51702 43.655H6.41357V46.7585H9.51702V43.655Z" fill="black"/>
<path d="M15.7241 43.655H12.6206V46.7585H15.7241V43.655Z" fill="black"/>
<path d="M21.9308 43.655H18.8274V46.7585H21.9308V43.655Z" fill="black"/>
<path d="M25.0344 43.655H21.9309V46.7585H25.0344V43.655Z" fill="black"/>
<path d="M28.1379 43.655H25.0344V46.7585H28.1379V43.655Z" fill="black"/>
<path d="M56.0688 43.655H52.9653V46.7585H56.0688V43.655Z" fill="black"/>
<path d="M62.2758 43.655H59.1724V46.7585H62.2758V43.655Z" fill="black"/>
<path d="M65.3791 43.655H62.2756V46.7585H65.3791V43.655Z" fill="black"/>
<path d="M71.5861 43.655H68.4827V46.7585H71.5861V43.655Z" fill="black"/>
<path d="M77.7929 43.655H74.6895V46.7585H77.7929V43.655Z" fill="black"/>
<path d="M6.41375 46.7585H3.3103V49.862H6.41375V46.7585Z" fill="black"/>
<path d="M18.8276 46.7585H15.7241V49.862H18.8276V46.7585Z" fill="black"/>
<path d="M28.1379 46.7585H25.0344V49.862H28.1379V46.7585Z" fill="black"/>
<path d="M65.3791 46.7585H62.2756V49.862H65.3791V46.7585Z" fill="black"/>
<path d="M74.6896 46.7585H71.5862V49.862H74.6896V46.7585Z" fill="black"/>
<path d="M3.31024 49.8621H0.206787V52.9655H3.31024V49.8621Z" fill="black"/>
<path d="M6.41375 49.8621H3.3103V52.9655H6.41375V49.8621Z" fill="black"/>
<path d="M12.6205 49.8621H9.51709V52.9655H12.6205V49.8621Z" fill="black"/>
<path d="M21.9308 49.8621H18.8274V52.9655H21.9308V49.8621Z" fill="black"/>
<path d="M25.0344 49.8621H21.9309V52.9655H25.0344V49.8621Z" fill="black"/>
<path d="M31.2414 49.8621H28.1379V52.9655H31.2414V49.8621Z" fill="black"/>
<path d="M34.3447 49.8621H31.2412V52.9655H34.3447V49.8621Z" fill="black"/>
<path d="M40.5517 49.8621H37.4482V52.9655H40.5517V49.8621Z" fill="black"/>
<path d="M43.655 49.8621H40.5515V52.9655H43.655V49.8621Z" fill="black"/>
<path d="M49.862 49.8621H46.7585V52.9655H49.862V49.8621Z" fill="black"/>
<path d="M52.9655 49.8621H49.8621V52.9655H52.9655V49.8621Z" fill="black"/>
<path d="M56.0688 49.8621H52.9653V52.9655H56.0688V49.8621Z" fill="black"/>
<path d="M59.1723 49.8621H56.0688V52.9655H59.1723V49.8621Z" fill="black"/>
<path d="M62.2758 49.8621H59.1724V52.9655H62.2758V49.8621Z" fill="black"/>
<path d="M65.3791 49.8621H62.2756V52.9655H65.3791V49.8621Z" fill="black"/>
<path d="M68.4826 49.8621H65.3792V52.9655H68.4826V49.8621Z" fill="black"/>
<path d="M71.5861 49.8621H68.4827V52.9655H71.5861V49.8621Z" fill="black"/>
<path d="M28.1379 52.9656H25.0344V56.069H28.1379V52.9656Z" fill="black"/>
<path d="M31.2414 52.9656H28.1379V56.069H31.2414V52.9656Z" fill="black"/>
<path d="M34.3447 52.9656H31.2412V56.069H34.3447V52.9656Z" fill="black"/>
<path d="M40.5517 52.9656H37.4482V56.069H40.5517V52.9656Z" fill="black"/>
<path d="M43.655 52.9656H40.5515V56.069H43.655V52.9656Z" fill="black"/>
<path d="M46.7585 52.9656H43.655V56.069H46.7585V52.9656Z" fill="black"/>
<path d="M49.862 52.9656H46.7585V56.069H49.862V52.9656Z" fill="black"/>
<path d="M52.9655 52.9656H49.8621V56.069H52.9655V52.9656Z" fill="black"/>
<path d="M65.3791 52.9656H62.2756V56.069H65.3791V52.9656Z" fill="black"/>
<path d="M68.4826 52.9656H65.3792V56.069H68.4826V52.9656Z" fill="black"/>
<path d="M77.7929 52.9656H74.6895V56.069H77.7929V52.9656Z" fill="black"/>
<path d="M34.3447 56.0688H31.2412V59.1723H34.3447V56.0688Z" fill="black"/>
<path d="M37.4482 56.0688H34.3447V59.1723H37.4482V56.0688Z" fill="black"/>
<path d="M40.5517 56.0688H37.4482V59.1723H40.5517V56.0688Z" fill="black"/>
<path d="M46.7585 56.0688H43.655V59.1723H46.7585V56.0688Z" fill="black"/>
<path d="M49.862 56.0688H46.7585V59.1723H49.862V56.0688Z" fill="black"/>
<path d="M52.9655 56.0688H49.8621V59.1723H52.9655V56.0688Z" fill="black"/>
<path d="M59.1723 56.0688H56.0688V59.1723H59.1723V56.0688Z" fill="black"/>
<path d="M65.3791 56.0688H62.2756V59.1723H65.3791V56.0688Z" fill="black"/>
<path d="M68.4826 56.0688H65.3792V59.1723H68.4826V56.0688Z" fill="black"/>
<path d="M74.6896 56.0688H71.5862V59.1723H74.6896V56.0688Z" fill="black"/>
<path d="M77.7929 56.0688H74.6895V59.1723H77.7929V56.0688Z" fill="black"/>
<path d="M28.1379 59.1724H25.0344V62.2758H28.1379V59.1724Z" fill="black"/>
<path d="M34.3447 59.1724H31.2412V62.2758H34.3447V59.1724Z" fill="black"/>
<path d="M40.5517 59.1724H37.4482V62.2758H40.5517V59.1724Z" fill="black"/>
<path d="M46.7585 59.1724H43.655V62.2758H46.7585V59.1724Z" fill="black"/>
<path d="M52.9655 59.1724H49.8621V62.2758H52.9655V59.1724Z" fill="black"/>
<path d="M65.3791 59.1724H62.2756V62.2758H65.3791V59.1724Z" fill="black"/>
<path d="M68.4826 59.1724H65.3792V62.2758H68.4826V59.1724Z" fill="black"/>
<path d="M71.5861 59.1724H68.4827V62.2758H71.5861V59.1724Z" fill="black"/>
<path d="M74.6896 59.1724H71.5862V62.2758H74.6896V59.1724Z" fill="black"/>
<path d="M34.3447 62.2759H31.2412V65.3793H34.3447V62.2759Z" fill="black"/>
<path d="M40.5517 62.2759H37.4482V65.3793H40.5517V62.2759Z" fill="black"/>
<path d="M46.7585 62.2759H43.655V65.3793H46.7585V62.2759Z" fill="black"/>
<path d="M52.9655 62.2759H49.8621V65.3793H52.9655V62.2759Z" fill="black"/>
<path d="M56.0688 62.2759H52.9653V65.3793H56.0688V62.2759Z" fill="black"/>
<path d="M59.1723 62.2759H56.0688V65.3793H59.1723V62.2759Z" fill="black"/>
<path d="M62.2758 62.2759H59.1724V65.3793H62.2758V62.2759Z" fill="black"/>
<path d="M65.3791 62.2759H62.2756V65.3793H65.3791V62.2759Z" fill="black"/>
<path d="M68.4826 62.2759H65.3792V65.3793H68.4826V62.2759Z" fill="black"/>
<path d="M74.6896 62.2759H71.5862V65.3793H74.6896V62.2759Z" fill="black"/>
<path d="M28.1379 65.3792H25.0344V68.4826H28.1379V65.3792Z" fill="black"/>
<path d="M34.3447 65.3792H31.2412V68.4826H34.3447V65.3792Z" fill="black"/>
<path d="M37.4482 65.3792H34.3447V68.4826H37.4482V65.3792Z" fill="black"/>
<path d="M43.655 65.3792H40.5515V68.4826H43.655V65.3792Z" fill="black"/>
<path d="M49.862 65.3792H46.7585V68.4826H49.862V65.3792Z" fill="black"/>
<path d="M56.0688 65.3792H52.9653V68.4826H56.0688V65.3792Z" fill="black"/>
<path d="M62.2758 65.3792H59.1724V68.4826H62.2758V65.3792Z" fill="black"/>
<path d="M65.3791 65.3792H62.2756V68.4826H65.3791V65.3792Z" fill="black"/>
<path d="M68.4826 65.3792H65.3792V68.4826H68.4826V65.3792Z" fill="black"/>
<path d="M71.5861 65.3792H68.4827V68.4826H71.5861V65.3792Z" fill="black"/>
<path d="M31.2414 68.4827H28.1379V71.5861H31.2414V68.4827Z" fill="black"/>
<path d="M40.5517 68.4827H37.4482V71.5861H40.5517V68.4827Z" fill="black"/>
<path d="M49.862 68.4827H46.7585V71.5861H49.862V68.4827Z" fill="black"/>
<path d="M52.9655 68.4827H49.8621V71.5861H52.9655V68.4827Z" fill="black"/>
<path d="M62.2758 68.4827H59.1724V71.5861H62.2758V68.4827Z" fill="black"/>
<path d="M65.3791 68.4827H62.2756V71.5861H65.3791V68.4827Z" fill="black"/>
<path d="M71.5861 68.4827H68.4827V71.5861H71.5861V68.4827Z" fill="black"/>
<path d="M77.7929 68.4827H74.6895V71.5861H77.7929V68.4827Z" fill="black"/>
<path d="M31.2414 71.5862H28.1379V74.6896H31.2414V71.5862Z" fill="black"/>
<path d="M34.3447 71.5862H31.2412V74.6896H34.3447V71.5862Z" fill="black"/>
<path d="M40.5517 71.5862H37.4482V74.6896H40.5517V71.5862Z" fill="black"/>
<path d="M43.655 71.5862H40.5515V74.6896H43.655V71.5862Z" fill="black"/>
<path d="M46.7585 71.5862H43.655V74.6896H46.7585V71.5862Z" fill="black"/>
<path d="M49.862 71.5862H46.7585V74.6896H49.862V71.5862Z" fill="black"/>
<path d="M52.9655 71.5862H49.8621V74.6896H52.9655V71.5862Z" fill="black"/>
<path d="M56.0688 71.5862H52.9653V74.6896H56.0688V71.5862Z" fill="black"/>
<path d="M59.1723 71.5862H56.0688V74.6896H59.1723V71.5862Z" fill="black"/>
<path d="M68.4826 71.5862H65.3792V74.6896H68.4826V71.5862Z" fill="black"/>
<path d="M28.1379 74.6897H25.0344V77.7931H28.1379V74.6897Z" fill="black"/>
<path d="M37.4482 74.6897H34.3447V77.7931H37.4482V74.6897Z" fill="black"/>
<path d="M40.5517 74.6897H37.4482V77.7931H40.5517V74.6897Z" fill="black"/>
<path d="M49.862 74.6897H46.7585V77.7931H49.862V74.6897Z" fill="black"/>
<path d="M52.9655 74.6897H49.8621V77.7931H52.9655V74.6897Z" fill="black"/>
<path d="M62.2758 74.6897H59.1724V77.7931H62.2758V74.6897Z" fill="black"/>
<path d="M74.6896 74.6897H71.5862V77.7931H74.6896V74.6897Z" fill="black"/>
<path d="M77.7929 74.6897H74.6895V77.7931H77.7929V74.6897Z" fill="black"/>
<path d="M13.5018 21.9093C14.9356 21.9093 16.3911 21.9093 17.8249 21.9093C18.5418 21.9093 19.2587 21.9093 19.9973 21.9093C20.3449 21.9093 20.6925 21.9093 21.0401 21.9093C21.2356 21.9093 21.4746 21.9527 21.6918 21.8875C21.8222 21.8441 21.8656 21.7355 21.8656 21.6051C21.8656 21.301 21.757 20.9751 21.6918 20.671C21.5832 19.9758 21.4963 19.2806 21.4311 18.5855C21.3008 17.1517 21.1704 15.7396 21.127 14.3058C21.0835 12.8937 21.127 11.4817 21.279 10.0696C21.3442 9.37442 21.4528 8.67925 21.5832 8.0058C21.7135 7.3758 21.8656 6.76753 21.909 6.1158C21.9742 4.89925 21.6918 3.70443 21.0618 2.66167C20.4753 1.68408 19.5846 1.03236 18.5201 0.641322C17.2166 0.163391 15.848 0.206839 14.5011 0.206839C13.0673 0.206839 11.6335 0.206839 10.1997 0.206839C8.76594 0.206839 7.33215 0.206839 5.89836 0.250287C4.83388 0.272011 3.74767 0.467529 2.79181 1.01063C1.7925 1.57546 1.01043 2.5096 0.641117 3.5958C0.206635 4.8558 0.250082 6.26787 0.250082 7.57132C0.250082 10.3955 0.163187 13.2413 0.250082 16.0872C0.293531 17.1734 0.48905 18.2813 1.05388 19.2372C1.64043 20.2582 2.59629 20.9968 3.6825 21.4096C4.9425 21.8875 6.31112 21.931 7.63629 21.9093C9.04836 21.8875 10.4604 21.9093 11.8725 21.9093C12.4156 21.931 12.9587 21.9093 13.5018 21.9093C16.087 21.9093 12.068 21.9093 13.5018 21.9093ZM12.8718 18.8027C12.8718 18.781 8.98319 18.8027 8.61388 18.8027C7.94043 18.8027 7.24526 18.8244 6.57181 18.6724C5.98526 18.542 5.44215 18.303 4.9425 17.9555C4.1387 17.3906 3.61732 16.5651 3.46526 15.5875C3.35664 14.9575 3.40008 14.3275 3.40008 13.6975C3.40008 12.9806 3.40008 12.242 3.40008 11.5251C3.40008 10.8082 3.40008 10.0696 3.42181 9.3527C3.42181 8.65753 3.40008 7.98408 3.44353 7.28891C3.48698 6.22442 3.81284 5.09477 4.59491 4.33442C4.92077 4.00856 5.33353 3.7696 5.76801 3.63925C6.35457 3.46546 6.98457 3.48718 7.59284 3.44374C9.02664 3.35684 10.4604 3.31339 11.8942 3.31339C12.6111 3.31339 13.328 3.33511 14.0449 3.37856C14.6749 3.42201 15.3484 3.42201 15.9784 3.55236C16.9125 3.74787 17.738 4.33442 18.2377 5.15994C18.8894 6.22442 18.759 7.41925 18.5635 8.59236C18.3028 9.9827 18.2377 11.3948 18.2377 12.7851C18.2377 13.8279 18.2594 14.8706 18.368 15.9134C18.4115 16.413 18.4766 16.9127 18.5418 17.4124C18.5853 17.673 18.607 17.912 18.6504 18.1727C18.6722 18.3248 18.6939 18.4986 18.6287 18.6506C18.4766 18.933 17.9553 18.8244 17.7163 18.8244C17.1732 18.8244 16.6084 18.8244 16.0653 18.8244C15.0225 18.8027 13.958 18.8027 12.8718 18.8027C12.8718 18.8027 14.6532 18.8027 12.8718 18.8027Z" fill="black"/>
<path d="M64.4977 21.9093C63.0639 21.9093 61.6084 21.9093 60.1746 21.9093C59.4577 21.9093 58.7408 21.9093 58.0022 21.9093C57.6546 21.9093 57.307 21.9093 56.9594 21.9093C56.7639 21.9093 56.5249 21.9527 56.3077 21.8875C56.1774 21.8441 56.1339 21.7355 56.1339 21.6051C56.1339 21.301 56.2425 20.9751 56.3077 20.671C56.4163 19.9758 56.5032 19.2806 56.5684 18.5855C56.6987 17.1517 56.8291 15.7396 56.8725 14.3058C56.916 12.8937 56.8725 11.4817 56.7205 10.0696C56.6553 9.37442 56.5467 8.67925 56.4163 8.0058C56.286 7.3758 56.1339 6.76753 56.0905 6.1158C56.0253 4.89925 56.3077 3.70443 56.9377 2.66167C57.5243 1.68408 58.4149 1.03236 59.4794 0.641322C60.7829 0.163391 62.1515 0.206839 63.4984 0.206839C64.9322 0.206839 66.366 0.206839 67.7998 0.206839C69.2336 0.206839 70.6674 0.206839 72.1012 0.250287C73.1656 0.272011 74.2518 0.467529 75.2077 1.01063C76.207 1.57546 76.9891 2.5096 77.3584 3.5958C77.7929 4.8558 77.7494 6.26787 77.7494 7.57132C77.7494 10.3955 77.8363 13.2413 77.7494 16.0872C77.706 17.1734 77.5105 18.2813 76.9456 19.2372C76.3591 20.2582 75.4032 20.9968 74.317 21.4096C73.057 21.8875 71.6884 21.931 70.3632 21.9093C68.9512 21.8875 67.5391 21.9093 66.127 21.9093C65.5839 21.931 65.0408 21.9093 64.4977 21.9093C61.9125 21.9093 65.9315 21.9093 64.4977 21.9093ZM65.1277 18.8027C65.1277 18.781 69.0163 18.8027 69.3856 18.8027C70.0591 18.8027 70.7543 18.8244 71.4277 18.6724C72.0143 18.542 72.5574 18.303 73.057 17.9555C73.8608 17.3906 74.3822 16.5651 74.5343 15.5875C74.6429 14.9575 74.5994 14.3275 74.5994 13.6975C74.5994 12.9806 74.5994 12.242 74.5994 11.5251C74.5994 10.8082 74.5994 10.0696 74.5777 9.3527C74.5777 8.65753 74.5994 7.98408 74.556 7.28891C74.5125 6.22442 74.1867 5.09477 73.4046 4.33442C73.0787 4.00856 72.666 3.7696 72.2315 3.63925C71.6449 3.46546 71.0149 3.48718 70.4067 3.44374C68.9729 3.35684 67.5391 3.31339 66.1053 3.31339C65.3884 3.31339 64.6715 3.33511 63.9546 3.37856C63.3246 3.42201 62.6512 3.42201 62.0212 3.55236C61.087 3.74787 60.2615 4.33442 59.7618 5.15994C59.1101 6.22442 59.2405 7.41925 59.436 8.59236C59.6967 9.9827 59.7618 11.3948 59.7618 12.7851C59.7618 13.8279 59.7401 14.8706 59.6315 15.9134C59.588 16.413 59.5229 16.9127 59.4577 17.4124C59.4143 17.673 59.3925 17.912 59.3491 18.1727C59.3274 18.3248 59.3056 18.4986 59.3708 18.6506C59.5229 18.933 60.0443 18.8244 60.2832 18.8244C60.8263 18.8244 61.3912 18.8244 61.9343 18.8244C62.977 18.8027 64.0415 18.8027 65.1277 18.8027C65.1277 18.8027 63.3463 18.8027 65.1277 18.8027Z" fill="black"/>
<path d="M13.5021 56.0905C14.9358 56.0905 16.3914 56.0905 17.8252 56.0905C18.5421 56.0905 19.2589 56.0905 19.9976 56.0905C20.3452 56.0905 20.6927 56.0905 21.0403 56.0905C21.2358 56.0905 21.4748 56.0471 21.6921 56.1122C21.8224 56.1557 21.8658 56.2643 21.8658 56.3946C21.8658 56.6988 21.7572 57.0246 21.6921 57.3288C21.5834 58.024 21.4965 58.7191 21.4314 59.4143C21.301 60.8481 21.1707 62.2602 21.1272 63.694C21.0838 65.106 21.1272 66.5181 21.2793 67.9302C21.3445 68.6253 21.4531 69.3205 21.5834 69.994C21.7138 70.624 21.8658 71.2322 21.9093 71.884C21.9745 73.1005 21.6921 74.2953 21.0621 75.3381C20.4755 76.3157 19.5848 76.9674 18.5203 77.3584C17.2169 77.8364 15.8483 77.7929 14.5014 77.7929C13.0676 77.7929 11.6338 77.7929 10.2 77.7929C8.76619 77.7929 7.3324 77.7929 5.8986 77.7495C4.83412 77.7277 3.74791 77.5322 2.79205 76.9891C1.79274 76.4243 1.01067 75.4902 0.641361 74.404C0.206879 73.144 0.250326 71.7319 0.250326 70.4284C0.250326 67.6043 0.163431 64.7584 0.250326 61.9126C0.293776 60.8264 0.489294 59.7184 1.05412 58.7626C1.64067 57.7415 2.59653 57.0029 3.68274 56.5902C4.94274 56.1122 6.31136 56.0688 7.63653 56.0905C9.0486 56.1122 10.4607 56.0905 11.8727 56.0905C12.4158 56.0688 12.9589 56.0905 13.5021 56.0905C16.0872 56.0905 12.0683 56.0905 13.5021 56.0905ZM12.8721 59.1971C12.8721 59.2188 8.98343 59.1971 8.61412 59.1971C7.94067 59.1971 7.2455 59.1753 6.57205 59.3274C5.9855 59.4577 5.4424 59.6967 4.94274 60.0443C4.13895 60.6091 3.61757 61.4346 3.4655 62.4122C3.35688 63.0422 3.40033 63.6722 3.40033 64.3022C3.40033 65.0191 3.40033 65.7577 3.40033 66.4746C3.40033 67.1915 3.40033 67.9302 3.42205 68.6471C3.42205 69.3422 3.40033 70.0157 3.44378 70.7108C3.48722 71.7753 3.81309 72.905 4.59515 73.6653C4.92102 73.9912 5.33377 74.2302 5.76826 74.3605C6.35481 74.5343 6.98481 74.5126 7.59309 74.556C9.02688 74.6429 10.4607 74.6864 11.8945 74.6864C12.6114 74.6864 13.3283 74.6646 14.0452 74.6212C14.6752 74.5777 15.3486 74.5777 15.9786 74.4474C16.9127 74.2519 17.7383 73.6653 18.2379 72.8398C18.8896 71.7753 18.7593 70.5805 18.5638 69.4074C18.3031 68.0171 18.2379 66.605 18.2379 65.2146C18.2379 64.1719 18.2596 63.1291 18.3683 62.0864C18.4117 61.5867 18.4769 61.0871 18.5421 60.5874C18.5855 60.3267 18.6072 60.0877 18.6507 59.8271C18.6724 59.675 18.6941 59.5012 18.6289 59.3491C18.4769 59.0667 17.9555 59.1753 17.7165 59.1753C17.1734 59.1753 16.6086 59.1753 16.0655 59.1753C15.0227 59.1971 13.9583 59.1971 12.8721 59.1971C12.8721 59.1971 14.6534 59.1971 12.8721 59.1971Z" fill="black"/>
<path d="M15.7239 6.41382H6.41357V15.7242H15.7239V6.41382Z" fill="black"/>
<path d="M71.586 6.41382H62.2756V15.7242H71.586V6.41382Z" fill="black"/>
<path d="M15.7239 62.2759H6.41357V71.5862H15.7239V62.2759Z" fill="black"/>
<path d="M29.6895 36.2922C29.6895 33.9802 29.6895 32.8241 30.1395 31.9396C30.5351 31.1638 31.1636 30.5276 31.9472 30.1319C32.8317 29.6819 33.9877 29.6819 36.2998 29.6819H41.63C43.942 29.6819 45.0981 29.6819 45.9826 30.1319C46.7584 30.5276 47.3946 31.156 47.7903 31.9396C48.2403 32.8241 48.2403 33.9802 48.2403 36.2922V41.6224C48.2403 43.9345 48.2403 45.0905 47.7903 45.975C47.3946 46.7509 46.7662 47.3871 45.9826 47.7827C45.0981 48.2327 43.942 48.2327 41.63 48.2327H36.2998C33.9877 48.2327 32.8317 48.2327 31.9472 47.7827C31.1714 47.3871 30.5351 46.7586 30.1395 45.975C29.6895 45.0905 29.6895 43.9345 29.6895 41.6224V36.2922Z" fill="#FF6600"/>
<path d="M37.1378 38.6974H35.6792V40.6293C35.6792 41.0483 35.9662 41.2267 36.2998 41.2267C36.5714 41.2267 36.874 41.1569 37.1378 41.0405V42.2354C36.8585 42.3517 36.5016 42.4216 36.0981 42.4216C35.0352 42.4216 34.3602 41.7155 34.3602 40.7147V38.6974H33.1421V37.5026H34.3602V36.2612H35.6714V37.5104H37.1378V38.6974Z" fill="black"/>
<path d="M42.8713 35.9664C42.8713 35.4776 43.2437 35.0974 43.7325 35.0974C44.2213 35.0974 44.5937 35.4776 44.5937 35.9664C44.5937 36.4552 44.2213 36.8353 43.7325 36.8353C43.2515 36.8353 42.8713 36.4552 42.8713 35.9664ZM43.0731 37.5103H44.3998L44.392 42.3362H43.0653L43.0731 37.5103Z" fill="black"/>
<path d="M40.3576 37.4172C39.7447 37.4172 39.2403 37.6655 38.9222 37.9914V35.4854H37.611L37.6033 42.3362H38.8524V41.7698C39.2171 42.1733 39.8222 42.4293 40.3731 42.4293C41.8007 42.4293 42.7007 41.3121 42.7007 39.9233C42.6929 38.5345 41.7929 37.4172 40.3576 37.4172ZM40.1015 41.2112C39.3878 41.2112 38.8834 40.6526 38.8834 39.9155C38.8834 39.1785 39.38 38.6198 40.1171 38.6198C40.8541 38.6198 41.3119 39.2095 41.3119 39.9155C41.3119 40.6216 40.7998 41.2112 40.1015 41.2112Z" fill="black"/>
</svg>
