<?xml version="1.0" standalone="no"?>
<!DOCTYPE svg PUBLIC "-//W3C//DTD SVG 20010904//EN"
 "http://www.w3.org/TR/2001/REC-SVG-20010904/DTD/svg10.dtd">
<svg version="1.0" xmlns="http://www.w3.org/2000/svg"
 width="700.000000pt" height="700.000000pt" viewBox="0 0 700.000000 700.000000"
 preserveAspectRatio="xMidYMid meet">
<metadata>
Created by potrace 1.14, written by Peter Selinger 2001-2017
</metadata>
<g transform="translate(0.000000,700.000000) scale(0.100000,-0.100000)"
fill="#000000" stroke="none">
<path d="M1739 6996 c-2 -2 -71 -7 -153 -10 -82 -4 -152 -9 -155 -10 -3 -2
-40 -7 -81 -10 -198 -18 -406 -81 -563 -170 -284 -162 -512 -410 -641 -696
-38 -83 -88 -259 -100 -350 -20 -152 -26 -213 -33 -327 -11 -169 -10 -3607 0
-3793 4 -80 10 -161 12 -180 20 -161 24 -185 46 -280 59 -254 177 -459 384
-665 233 -234 479 -363 779 -411 21 -3 48 -8 60 -10 11 -2 50 -7 86 -10 36 -3
81 -7 100 -10 117 -14 563 -18 2025 -18 1449 0 1845 3 2015 18 249 21 409 55
560 119 369 155 698 505 816 868 28 86 26 78 59 248 2 13 7 46 10 75 4 28 8
65 10 81 16 133 20 545 20 2065 0 1744 -3 1956 -31 2155 -3 22 -8 58 -11 80
-3 22 -11 67 -19 100 -8 33 -17 68 -19 78 -33 143 -154 365 -279 512 -237 279
-536 453 -871 505 -38 6 -81 13 -95 15 -14 3 -63 7 -110 11 -47 3 -105 8 -130
11 -48 6 -3685 15 -3691 9z"/>
</g>
</svg>
