<svg width="354" height="295" viewBox="0 0 354 295" fill="none" xmlns="http://www.w3.org/2000/svg">
<g clip-path="url(#clip0_2409_12218)">
<path d="M66.221 88.9877C66.008 91.2607 64.0297 112.795 65.0911 121.722C65.0983 121.769 65.1019 121.815 65.1019 121.862L66.416 157.997C66.4232 158.156 66.4449 158.314 66.4846 158.469L80.0948 212.795C80.1309 212.939 80.1526 213.087 80.1598 213.235L80.7049 224.117C80.7446 224.895 80.3872 225.634 79.7519 226.091C77.9432 227.392 73.9467 229.957 69.6795 230.681C69.5676 230.699 69.4557 230.713 69.3402 230.72C63.3437 231.142 55.2823 229.669 51.0043 217.323C45.9176 204.243 40.672 183.166 40.672 183.166C40.672 183.166 35.8922 163.163 22.0148 167.781C14.7692 171.012 12.1447 177.475 8.44427 189.629C5.91356 196.747 3.38285 202.41 2.26009 204.823C1.88464 205.63 2.0146 206.567 2.59223 207.248C4.5056 209.514 9.0255 214.29 12.9172 213.937C16.4624 213.595 22.4697 210.205 25.7766 205.965C26.8704 204.564 29.0474 204.838 29.708 206.488C33.3001 215.493 41.0547 229.117 43.4518 231.635C46.3833 234.56 55.6325 245.022 64.1127 243.483C68.3727 242.939 73.954 240.771 77.611 238.404C79.1165 237.428 81.1057 238.447 81.1526 240.238C81.3259 246.689 81.3692 257.442 81.38 262.583C81.38 264.067 82.7808 265.14 84.2212 264.784L114.781 257.194C115.882 256.92 116.615 255.886 116.507 254.759L115.936 248.772C115.839 247.741 116.445 246.772 117.42 246.412L145.63 235.973C147.096 235.429 148.666 236.48 148.716 238.044L149.446 260.929C149.493 262.446 150.98 263.494 152.428 263.033L174.099 256.163C175.078 255.854 175.731 254.928 175.695 253.905L175.045 235.731C175.013 234.802 174.428 233.991 173.554 233.674C170.948 232.73 165.735 229.968 166.197 223.019C166.197 214.258 166.847 195.029 167.056 189.009C167.092 187.932 166.37 186.985 165.323 186.722L153.615 183.8C152.8 183.595 152.164 182.975 151.955 182.161C151.467 180.281 150.637 176.553 150.316 172.093C149.904 166.333 149.98 144.816 150.002 140.198C150.002 139.618 150.218 139.089 150.615 138.667C152.453 136.725 158.099 130.991 162.803 128.707C167.699 126.329 185.757 115.122 190.789 111.985C191.609 111.473 192.017 110.511 191.804 109.571C191.107 106.538 188.952 100.068 183.002 98.0871C176.298 95.7348 165.792 93.3789 161.955 92.5504C161.056 92.3558 160.374 91.6498 160.2 90.7528L154.319 60.2593C153.951 58.3573 151.529 57.7449 150.298 59.2435L150.121 59.4596C149.233 60.5403 147.673 60.5007 146.648 59.5424C145.807 58.7571 144.377 58.2024 141.944 58.5806C140.283 58.84 138.897 57.3234 139.366 55.7132C141.626 47.8998 146.193 32.9178 145.688 31.1527C144.46 29.3119 145.218 25.9473 139.276 32.6188C139.236 32.6656 139.193 32.7089 139.15 32.7485C132.178 39.3191 113.615 56.7146 107.546 62.4027C106.521 63.3645 104.878 63.1808 104.088 62.0208L95.7267 49.7658C95.7267 49.7658 90.0227 44.5352 90.1743 51.1491C90.4126 54.4128 90.6112 59.8126 90.7484 64.2687C90.8169 66.5273 87.9072 67.4963 86.5931 65.6556L79.6616 55.9257C78.5533 54.3695 76.1309 54.7766 75.5966 56.6138L66.3041 88.5842C66.2644 88.7211 66.2391 88.8436 66.2246 88.9877H66.221Z" fill="white"/>
<path d="M191.955 112.442C191.19 112.442 190.547 111.848 190.501 111.073C190.053 103.516 188.584 101.718 183.396 99.0381C169.966 93.685 160.302 93.6058 160.208 93.6058C159.403 93.6058 158.753 92.9538 158.753 92.1505C158.753 91.3471 159.406 90.6987 160.208 90.6987C160.619 90.6987 170.486 90.7636 184.605 96.3976C191.14 99.7621 192.923 102.73 193.41 110.897C193.457 111.7 192.844 112.385 192.042 112.435C192.013 112.435 191.984 112.435 191.955 112.435V112.442Z" fill="black"/>
<path d="M246.306 124.172L245.782 110.472C245.652 107.093 243.057 104.319 239.685 103.963L216.085 101.466C211.847 101.016 207.58 101.978 203.944 104.197L154.059 134.654C151.428 136.261 149.843 139.139 149.897 142.219L150.539 180.076C150.583 182.662 153.207 184.402 155.612 183.444L167.648 178.656L166.197 225.573C166.045 230.483 170.359 234.352 175.236 233.674L197.045 230.652C201.645 230.014 204.984 225.962 204.721 221.333L203.276 196.045C203.276 196.045 212.551 190.328 211.186 174.543C215.551 172.637 245.97 160.378 245.97 160.378" fill="#FF6600"/>
<path d="M155.611 183.444L167.648 178.656L167.362 186.563L155.611 183.444Z" fill="#FF6600"/>
<path d="M224.313 282.637C225.205 283.084 226.01 283.62 226.66 284.28C230.194 287.853 224.075 291.996 220.819 292.929C215.374 294.492 209.335 294.658 203.67 294.813C186.822 295.277 169.897 294.723 153.038 294.694C145.164 294.679 137.287 294.669 129.413 294.669C122.283 294.669 115.153 294.55 108.023 294.55C101.619 294.55 95.0519 294.986 88.5826 294.906C83.1168 294.838 77.2756 294.442 72.4127 291.934C68.9867 290.166 68.225 285.857 70.7412 283.087C78.6511 274.373 87.9327 276.398 89.5501 276.027C89.5501 276.027 167.67 274.935 181.688 276.264C190.399 277.089 200.649 277.086 208.107 278.527C210.725 279.035 213.335 279.597 215.927 280.202C218.476 280.8 221.757 281.354 224.31 282.637H224.313Z" fill="black"/>
<path d="M96.2933 105.241C95.6687 105.241 95.0442 105.205 94.416 105.13C84.3762 103.984 79.2137 92.8963 78.9971 92.4244C78.7913 91.9669 78.831 91.4374 79.109 91.0195C79.387 90.6016 79.8707 90.3423 80.3617 90.3711C80.3617 90.3711 89.6037 90.6196 95.6543 90.8538C104.189 91.1816 112.604 92.147 112.687 92.1542C113.196 92.2119 113.636 92.5361 113.849 93.0008C114.059 93.4691 114.008 94.0094 113.712 94.4309C108.777 101.459 102.654 105.238 96.2933 105.238V105.241ZM82.8383 93.3502C84.7228 96.3581 88.7986 101.567 94.7518 102.244C101.481 103.037 106.676 98.5555 109.799 94.7731C106.683 94.4633 101.138 93.9734 95.546 93.7572C91.4954 93.6023 86.0116 93.4366 82.8419 93.3466L82.8383 93.3502Z" fill="black"/>
<path d="M95.3874 91.5779C95.3874 91.5779 92.7123 97.4857 97.3838 100.306C100.261 102.046 104.07 101.196 106.716 99.1247C109.763 96.7436 112.207 93.4943 112.207 93.4943C112.207 93.4943 109.492 94.0887 109.077 94.2436C108.662 94.3985 95.3874 91.5779 95.3874 91.5779Z" fill="black"/>
<path d="M137.47 102.172C137.239 102.172 137.012 102.165 136.784 102.147C127.857 101.131 123.091 93.1197 122.893 92.7775C122.636 92.3416 122.629 91.8049 122.867 91.3582C123.106 90.9151 123.561 90.6233 124.066 90.5945C124.066 90.5945 130.095 90.2379 132.106 90.191C142.831 89.9461 152.027 89.1968 152.12 89.186C152.702 89.1608 153.221 89.4237 153.503 89.91C153.785 90.4 153.756 91.0052 153.434 91.4662C149.749 96.7184 143.272 102.165 137.474 102.165L137.47 102.172ZM126.914 93.3467C128.756 95.5116 132.228 98.7033 137.062 99.2544C140.355 99.5138 145.225 96.6536 149.052 92.3272C145.395 92.5721 139.099 92.9396 132.171 93.0981C131.073 93.1233 128.759 93.2422 126.914 93.3467Z" fill="black"/>
<path d="M135.265 91.5419C135.265 91.5419 133.529 96.9021 142.15 97.9648C146.377 97.3128 151.215 90.8755 151.215 90.8755C151.215 90.8755 148.818 91.4014 148.45 91.5347C148.081 91.6716 135.265 91.5419 135.265 91.5419Z" fill="black"/>
<path d="M136.467 3.70306L99.4307 57.0748L105.405 64.6361L124.319 46.3832C124.319 46.3832 139.438 8.94802 136.464 3.69946L136.467 3.70306Z" fill="#FF6600"/>
<path d="M81.8164 275.051L81.8814 285.739H132.138C132.138 285.739 137.965 284.831 132.402 271.618C127.636 263.955 117.766 257.583 116.55 256.52C112.687 258.102 87.571 264.741 83.5998 265.004C81.9139 265.45 82.3471 272.936 81.8164 275.051Z" fill="#FF6600"/>
<path d="M70.3829 204.319C69.6645 204.319 69.0364 203.786 68.9425 203.055C65.567 177.244 63.2168 133.574 63.2168 110.522C64.4623 73.1737 74.7043 51.2213 75.1375 50.3027C75.3613 49.8272 75.827 49.5102 76.3505 49.4741C76.8884 49.4381 77.3794 49.6867 77.6682 50.1262L93.1232 73.5267C93.5637 74.1968 93.3796 75.0973 92.7081 75.5404C92.0402 75.9799 91.134 75.7998 90.69 75.1262L76.7332 53.995C74.0689 60.7061 67.1121 80.8827 66.123 110.569C66.123 133.44 68.5634 177.72 71.8234 202.677C71.9281 203.473 71.3649 204.204 70.5671 204.305C70.5021 204.316 70.4407 204.319 70.3757 204.319H70.3829Z" fill="black"/>
<path d="M86.1488 76.9813C85.3726 76.9813 84.73 76.3725 84.6939 75.5908C84.6578 74.7875 85.2823 74.1103 86.0838 74.0743L149.55 71.2969C150.348 71.3149 151.034 71.8841 151.07 72.6838C151.106 73.4871 150.482 74.1643 149.68 74.2003L86.2137 76.9777C86.1921 76.9777 86.1704 76.9777 86.1488 76.9777V76.9813Z" fill="black"/>
<path d="M160.024 90.3494C159.334 90.3494 158.724 89.8595 158.594 89.1606L152.735 57.536L144.175 73.4762C143.796 74.1859 142.908 74.4488 142.204 74.0706C141.493 73.6923 141.226 72.8098 141.608 72.1037L152.128 52.5108C152.421 51.9668 153.024 51.6606 153.637 51.7615C154.247 51.8552 154.731 52.3271 154.847 52.9323L161.464 88.6311C161.612 89.42 161.089 90.1765 160.298 90.3242C160.208 90.3422 160.121 90.3494 160.031 90.3494H160.024Z" fill="black"/>
<path d="M135.182 287.19H81.8821C81.0879 287.19 80.4381 286.556 80.4272 285.764L79.2395 219.705C79.2251 218.901 79.864 218.242 80.6691 218.224C81.5536 218.224 82.1384 218.851 82.1529 219.651L83.3117 284.283H133.796C133.854 281.567 133.612 275.162 130.529 270.097C129.46 268.339 127.883 266.783 125.839 265.476C123.962 264.272 122.298 263.397 120.828 262.626C118.54 261.423 116.882 260.555 115.987 259.211C114.442 256.149 114.049 247.788 114.009 246.844C113.976 246.041 114.597 245.364 115.402 245.331C116.204 245.313 116.886 245.919 116.919 246.722C117.059 250.047 117.612 255.984 118.5 257.752C118.897 258.325 120.348 259.085 122.186 260.051C123.633 260.811 125.431 261.754 127.417 263.026C129.836 264.579 131.724 266.448 133.023 268.584C137.54 276.005 136.677 285.472 136.637 285.872C136.565 286.618 135.937 287.183 135.186 287.183L135.182 287.19Z" fill="black"/>
<path d="M108.593 250.594C108.004 250.594 107.448 250.234 107.228 249.647C106.947 248.894 107.329 248.058 108.084 247.777C108.333 247.684 133.023 238.516 152.063 232.183C152.824 231.924 153.651 232.342 153.907 233.102C154.16 233.862 153.749 234.687 152.987 234.942C133.99 241.261 109.351 250.411 109.102 250.504C108.936 250.566 108.763 250.598 108.593 250.598V250.594Z" fill="black"/>
<path d="M81.9137 266.902C81.2783 266.902 80.6935 266.481 80.513 265.839C80.2964 265.068 80.7512 264.265 81.5238 264.049C81.6935 264.002 98.5781 259.305 116.102 255.022C116.878 254.831 117.672 255.306 117.864 256.088C118.055 256.866 117.578 257.655 116.795 257.846C99.3182 262.118 82.4733 266.801 82.3036 266.848C82.1736 266.884 82.0401 266.902 81.9101 266.902H81.9137Z" fill="black"/>
<path d="M106.258 273.818C105.846 273.818 105.445 273.646 105.16 273.321C104.731 272.831 104.68 272.115 105.041 271.571L114.724 256.823C115.164 256.153 116.07 255.965 116.738 256.401C117.409 256.841 117.601 257.741 117.16 258.411L110.33 268.818L123.81 262.406C124.54 262.057 125.406 262.367 125.753 263.091C126.099 263.815 125.792 264.683 125.067 265.029L106.889 273.674C106.691 273.772 106.474 273.815 106.261 273.815L106.258 273.818Z" fill="black"/>
<path d="M139.366 281.045H81.1736C80.3686 281.045 79.7188 280.393 79.7188 279.593C79.7188 278.793 80.3722 278.141 81.1736 278.141H139.366C140.171 278.141 140.82 278.793 140.82 279.593C140.82 280.393 140.167 281.045 139.366 281.045Z" fill="black"/>
<path d="M204.169 281.045H154.172C153.367 281.045 152.717 280.393 152.717 279.593C152.717 278.793 153.37 278.141 154.172 278.141H204.169C204.974 278.141 205.623 278.793 205.623 279.593C205.623 280.393 204.97 281.045 204.169 281.045Z" fill="black"/>
<path d="M91.8532 74.546C91.1529 74.546 90.5392 74.0417 90.4164 73.3321C89.4886 67.7917 86.7268 49.4668 90.2215 46.2283C90.781 45.724 91.4886 45.515 92.2143 45.6123C94.8027 45.9689 97.7594 50.461 102.366 57.7629C103.066 58.8724 103.763 59.9783 104.449 61.0374L105.568 62.4675L136.059 33.1952C136.402 32.8673 136.868 32.3378 137.406 31.729C139.771 29.0561 141.724 26.992 143.522 26.7434C144.836 26.5669 145.601 27.0748 146.02 27.5323C147.478 29.1209 147.023 32.4819 145.366 39.9171C143.962 46.7939 141.305 53.8832 139.742 57.7233C142.276 57.1217 145.742 56.7038 147.807 58.1844C148.652 58.7931 149.641 59.9747 149.547 62.1613C149.511 62.9646 148.85 63.5482 148.027 63.5518C147.222 63.5158 146.601 62.8385 146.634 62.0352C146.681 60.9581 146.262 60.6591 146.103 60.5439C144.623 59.4776 140.301 60.3854 137.709 61.3724C137.161 61.5777 136.536 61.4408 136.132 61.0122C135.727 60.5835 135.619 59.9567 135.861 59.4199C135.908 59.3155 140.55 48.9192 142.514 39.3119C143.031 36.9956 144.348 31.0806 143.922 29.6469C142.818 29.9999 140.569 32.5395 139.583 33.6526C138.98 34.3335 138.453 34.9243 138.07 35.2917L106.413 65.6807C106.117 65.9653 105.72 66.1094 105.297 66.0842C104.886 66.0518 104.507 65.8501 104.254 65.5258L102.066 62.7161C101.305 61.5453 100.601 60.4286 99.8966 59.3119C97.5356 55.5727 93.6619 49.4344 92.0229 48.577C90.8207 50.5763 91.3587 61.3688 93.2829 72.8493C93.4164 73.6418 92.8785 74.3911 92.0879 74.5244C92.0049 74.5388 91.9254 74.546 91.846 74.546H91.8532Z" fill="black"/>
<path d="M100.535 58.2133C100.253 58.2133 99.9718 58.134 99.7191 57.9647C99.0512 57.5144 98.8779 56.6102 99.3292 55.9474L136.784 0.641216C137.16 0.0864605 137.864 -0.140485 138.492 0.0900628C139.12 0.32061 139.51 0.947412 139.438 1.61384C139.409 1.8732 138.691 8.1196 133.644 24.5533C129.987 36.4553 125.867 46.3761 125.824 46.4734C125.514 47.2154 124.658 47.5612 123.918 47.2587C123.174 46.9489 122.824 46.0987 123.131 45.3566C123.171 45.2594 127.239 35.4611 130.853 23.6996C132.95 16.8732 134.29 11.8192 135.138 8.25649L101.737 57.5757C101.456 57.9899 100.997 58.2169 100.528 58.2169L100.535 58.2133Z" fill="black"/>
<path d="M117.655 33.0404C117.301 33.0404 116.944 32.9107 116.666 32.6514C116.077 32.1038 116.041 31.1852 116.59 30.598C118.048 29.031 131.001 19.4669 132.474 18.3826C133.121 17.9035 134.03 18.0404 134.511 18.6888C134.991 19.3372 134.853 20.245 134.204 20.7205C128.727 24.7587 119.684 31.5491 118.723 32.5793C118.438 32.8891 118.048 33.044 117.658 33.044L117.655 33.0404Z" fill="black"/>
<path d="M101.903 57.3811C101.481 57.3811 101.066 57.201 100.777 56.8516C100.264 56.232 100.355 55.317 100.976 54.8055L127.102 33.3538C127.727 32.8422 128.644 32.9359 129.153 33.5519C129.665 34.1715 129.575 35.0865 128.954 35.598L102.828 57.0497C102.557 57.2731 102.228 57.3811 101.903 57.3811Z" fill="black"/>
<path d="M76.8309 76.0159C76.1377 76.0159 75.5204 75.5188 75.3976 74.8127C74.8778 71.8228 76.1233 65.7781 76.2677 65.0973C76.4338 64.312 77.1991 63.8113 77.9933 63.977C78.7803 64.1427 79.2822 64.9136 79.1161 65.6989C78.7587 67.3956 77.9067 72.2479 78.2677 74.3156C78.4049 75.1045 77.8742 75.8574 77.0836 75.9979C77.0005 76.0123 76.9139 76.0195 76.8309 76.0195V76.0159Z" fill="black"/>
<path d="M151.338 69.6974C150.533 69.6974 149.883 69.0454 149.883 68.2457V66.3797C149.883 65.5764 150.536 64.928 151.338 64.928C152.139 64.928 152.793 65.58 152.793 66.3797V68.2457C152.793 69.049 152.139 69.6974 151.338 69.6974Z" fill="black"/>
<path d="M66.459 232.684C64.4265 232.684 62.5528 232.324 61.0185 231.56C49.4877 225.821 46.448 212.158 43.7656 200.101C43.1555 197.352 42.5779 194.759 41.9208 192.356L41.3938 190.375C39.1158 181.776 35.3396 167.36 25.1409 168.408C24.4405 168.476 23.6896 168.635 22.8412 168.883C15.2238 171.12 12.6101 179.128 10.7581 186.455L10.4837 187.536C8.81943 194.146 7.101 200.976 3.11179 206.736C4.11541 207.925 7.46201 210.414 8.26346 210.857C13.8953 213.617 18.2022 212.504 23.1192 206.999C28.8666 200.566 27.6644 191.881 25.6427 185.724C25.3936 184.96 25.8088 184.139 26.5741 183.891C27.3359 183.642 28.159 184.056 28.4117 184.82C31.65 194.683 30.5706 203.022 25.2925 208.934C19.4874 215.429 13.8303 216.823 6.95298 213.455C6.89161 213.426 0.635228 209.453 0.0648247 207.162C-0.0759709 206.603 0.021503 206.056 0.339196 205.62C4.29953 200.187 6.01073 193.397 7.66418 186.826L7.93855 185.742C9.41871 179.888 12.1769 168.988 22.0217 166.092C23.0434 165.793 23.9676 165.602 24.8521 165.512C37.4876 164.265 41.697 180.133 44.2133 189.629L44.7368 191.589C45.4082 194.056 45.9967 196.682 46.614 199.467C49.1556 210.89 52.0329 223.833 62.3218 228.952C66.3435 230.951 74.1522 229.136 79.0368 225.065C79.6577 224.55 80.5747 224.633 81.0873 225.249C81.6036 225.865 81.5205 226.78 80.9032 227.295C76.8021 230.713 71.1991 232.677 66.4626 232.677L66.459 232.684Z" fill="black"/>
<path d="M64.2966 245.05C55.5023 245.05 47.8704 238.238 41.8776 231.758C33.4912 222.122 26.8738 203.739 26.5958 202.961C26.3251 202.205 26.7222 201.373 27.4803 201.106C28.2348 200.839 29.0724 201.232 29.3395 201.988C29.4045 202.172 36.0508 220.634 44.0473 229.82C54.4698 241.092 62.3543 244.388 70.3724 240.818C73.2858 239.294 76.4808 237.514 79.7624 234.449C80.3509 233.901 81.2715 233.934 81.8202 234.517C82.3689 235.104 82.3401 236.023 81.7516 236.571C78.2028 239.885 74.8093 241.78 71.6396 243.433C69.1125 244.561 66.6612 245.054 64.293 245.054L64.2966 245.05Z" fill="black"/>
<path d="M164.713 112.572C164.659 112.572 164.605 112.572 164.55 112.561C163.753 112.471 163.175 111.754 163.265 110.955C163.453 109.276 164.341 107.795 165.767 106.783C167.633 105.461 170.207 105.043 172.825 105.638C173.608 105.814 174.103 106.596 173.922 107.378C173.745 108.159 172.962 108.653 172.179 108.473C170.388 108.069 168.623 108.321 167.453 109.153C166.929 109.524 166.28 110.195 166.157 111.279C166.074 112.021 165.442 112.572 164.713 112.572Z" fill="black"/>
<path d="M170.98 118.347C170.767 118.347 170.546 118.321 170.326 118.267C169.398 118.037 168.615 117.356 168.283 116.491C167.871 115.422 168.041 114.179 168.774 112.907C169.575 111.513 170.622 111.063 171.359 110.929C172.463 110.735 173.64 111.092 174.669 111.945C175.287 112.457 175.373 113.375 174.857 113.991C174.344 114.607 173.424 114.694 172.806 114.179C172.662 114.06 172.51 113.963 172.37 113.894C172.64 114.081 172.875 114.319 173.052 114.607C173.68 115.612 173.481 116.963 172.586 117.749C172.138 118.141 171.575 118.343 170.98 118.343V118.347Z" fill="black"/>
<path d="M67.4987 158.393C67.4987 158.393 51.7224 164.478 55.3831 183.249C57.6105 196.549 62.3651 214.928 80.2859 219.47C92.943 222.633 108.828 220.533 114.496 218.862C117.037 217.143 121.673 208.876 120.756 201.675C120.358 199.063 120.138 198.141 119.431 196.506C119.08 195.692 118.709 194.96 118.333 194.305C117.954 193.645 114.178 194.488 113.813 193.984C112.936 192.781 115.113 189.834 114.629 189.467C109.012 188.022 98.0406 192.352 91.2932 191.978C86.8166 191.304 80.1162 187.81 80.3906 176.83C80.7263 174.135 81.1342 172.006 81.1342 172.006" fill="white"/>
<path d="M95.2287 222.561C90.1926 222.561 84.8568 222.111 79.9325 220.879C61.6833 216.253 56.4594 198.469 53.9467 183.487C50.1055 163.786 66.806 157.1 66.9757 157.035C67.7266 156.747 68.5678 157.118 68.8566 157.864C69.149 158.609 68.7772 159.452 68.0299 159.744C67.4342 159.978 53.4377 165.663 56.8132 182.968C59.185 197.114 64.0298 213.847 80.6437 218.058C93.1818 221.192 108.471 219.049 113.843 217.532C115.937 215.872 120.135 208.318 119.308 201.851C118.926 199.319 118.731 198.555 118.088 197.075C117.843 196.502 117.583 195.973 117.323 195.486C116.933 195.486 116.348 195.519 115.955 195.544C114.399 195.645 113.272 195.717 112.626 194.834C111.705 193.566 112.276 191.931 112.803 190.648C110.041 190.465 106.157 191.235 102.395 191.996C98.4815 192.784 94.42 193.591 91.207 193.426C85.0228 192.5 78.6618 187.655 78.9289 176.79C79.2755 173.937 79.6798 171.819 79.6979 171.729C79.8495 170.94 80.6148 170.429 81.4019 170.576C82.1925 170.728 82.7087 171.488 82.5571 172.277C82.5535 172.298 82.1528 174.395 81.8279 177.003C81.5571 188.156 89.1637 190.184 91.5031 190.537C94.2179 190.677 98.0807 189.903 101.817 189.146C106.835 188.134 111.575 187.179 114.987 188.055C115.178 188.101 115.355 188.192 115.511 188.31C116.594 189.139 116.056 190.421 115.626 191.448C115.5 191.751 115.287 192.259 115.157 192.68C115.366 192.669 115.583 192.655 115.763 192.644C117.467 192.532 118.94 192.442 119.59 193.581C119.987 194.276 120.384 195.058 120.756 195.926C121.539 197.741 121.789 198.844 122.186 201.455C123.189 209.312 118.229 218.083 115.305 220.065C115.182 220.148 115.045 220.212 114.9 220.256C111.507 221.257 103.792 222.565 95.2215 222.565L95.2287 222.561Z" fill="black"/>
<path d="M95.4129 221.69C94.9183 221.69 94.4381 221.437 94.1638 220.987C93.7486 220.299 93.9724 219.406 94.662 218.991L102.395 214.348C92.9508 207.288 94.3009 205.393 94.893 204.557C95.9436 203.076 98.4201 202.806 101.037 202.522C101.532 202.468 102.164 202.399 102.691 202.32C101.954 201.329 100.662 199.87 99.94 199.056C98.2324 197.133 97.8172 196.628 97.6584 196.063C97.4526 195.335 97.1963 194.427 102.348 189.705C102.94 189.161 103.861 189.197 104.406 189.791C104.951 190.382 104.911 191.301 104.319 191.844C102.944 193.109 101.359 194.716 100.713 195.551C101.048 195.922 101.644 196.596 102.117 197.129C105.157 200.551 106.16 201.891 106.103 203.066C106.012 204.903 103.958 205.126 101.352 205.411C100.359 205.519 98.4598 205.728 97.6042 206.059C98.4707 207.417 101.991 210.519 105.864 213.285C106.265 213.57 106.492 214.035 106.471 214.525C106.449 215.015 106.186 215.461 105.767 215.713L96.1566 221.481C95.9219 221.621 95.662 221.69 95.4056 221.69H95.4129Z" fill="black"/>
<path d="M220.114 164.045C217.255 164.045 214.555 162.968 212.475 160.991C210.313 158.934 209.089 156.16 209.038 153.181C209.031 152.885 208.421 122.943 208.421 109.982C208.421 109.179 209.074 108.53 209.876 108.53C210.677 108.53 211.331 109.182 211.331 109.982C211.331 122.914 211.941 152.824 211.948 153.123C211.988 155.324 212.887 157.37 214.482 158.887C216.078 160.403 218.143 161.203 220.37 161.135L241.558 160.483C242.804 160.443 243.956 159.924 244.804 159.017C245.652 158.109 246.093 156.927 246.046 155.684L245.558 142.878C245.526 142.075 246.154 141.401 246.959 141.369C247.757 141.34 248.439 141.963 248.472 142.767L248.959 155.573C249.035 157.594 248.317 159.521 246.938 160.998C245.555 162.475 243.678 163.325 241.652 163.386L220.464 164.038C220.345 164.038 220.23 164.045 220.114 164.045Z" fill="black"/>
<path d="M164.907 181.185C164.337 181.185 163.795 180.85 163.564 180.292C163.254 179.55 163.604 178.699 164.344 178.39L211.439 158.689C212.179 158.379 213.034 158.728 213.345 159.467C213.655 160.209 213.305 161.059 212.565 161.369L165.471 181.07C165.286 181.145 165.095 181.185 164.907 181.185Z" fill="black"/>
<path d="M166.41 187.846C166.313 187.846 166.211 187.835 166.11 187.813L153.143 185.112C152.356 184.946 151.85 184.179 152.013 183.393C152.175 182.608 152.944 182.1 153.735 182.266L166.702 184.967C167.489 185.133 167.995 185.9 167.832 186.686C167.688 187.37 167.085 187.842 166.406 187.842L166.41 187.846Z" fill="black"/>
<path d="M107.084 87.356C106.792 87.356 106.496 87.2695 106.243 87.0858C97.1601 80.6413 87.3478 86.4518 86.9362 86.6968C86.2539 87.111 85.355 86.8985 84.9362 86.2105C84.5174 85.526 84.734 84.6326 85.4163 84.2148C85.8965 83.923 97.2612 77.1398 107.933 84.7155C108.59 85.1802 108.741 86.088 108.276 86.74C107.994 87.1398 107.543 87.3524 107.088 87.3524L107.084 87.356Z" fill="black"/>
<path d="M125.727 87.4965C124.965 87.4965 124.322 86.9057 124.275 86.1313C124.225 85.3315 124.835 84.6399 125.64 84.5931C140.369 83.6781 149.889 83.5664 149.983 83.5664H149.998C150.796 83.5664 151.445 84.2076 151.453 85.0037C151.46 85.807 150.817 86.4627 150.012 86.4735C149.918 86.4735 140.463 86.5851 125.817 87.4929C125.784 87.4929 125.756 87.4929 125.727 87.4929V87.4965Z" fill="black"/>
<path d="M291.592 73.7824L311.819 89.8379C311.819 89.8379 298.043 118.955 262.422 114.103C260.566 109.658 258.609 99.7875 258.609 99.7875C258.609 99.7875 286.552 99.7514 291.595 73.7788L291.592 73.7824Z" fill="#39B44A"/>
<path d="M270.18 115.857C267.664 115.857 265.025 115.681 262.256 115.306C261.826 115.248 261.465 114.968 261.299 114.571C259.418 110.065 257.494 100.436 257.414 100.029C257.342 99.6757 257.436 99.3047 257.667 99.0273C257.898 98.7499 258.241 98.5842 258.602 98.5842C259.703 98.5842 285.61 98.224 290.4 73.5554C290.48 73.1411 290.772 72.7953 291.169 72.6512C291.57 72.5071 292.014 72.5756 292.346 72.8422L312.574 88.8976C313.014 89.2471 313.155 89.8522 312.917 90.3602C312.787 90.6375 300.473 115.861 270.18 115.861V115.857ZM263.285 112.997C293.707 116.769 307.693 94.791 310.274 90.162L292.357 75.9401C287.039 97.3378 265.88 100.472 260.079 100.929C260.646 103.599 261.981 109.542 263.285 113.001V112.997Z" fill="black"/>
<path d="M149.121 262.846L149.854 283.635H198.836C198.836 283.635 198.104 269.045 194.45 264.305C189.331 259.928 175.443 255.187 175.443 255.187C175.443 255.187 150.951 262.846 149.125 262.846H149.121Z" fill="#FF6600"/>
<path d="M198.854 284.251H149.587C148.782 284.251 148.132 283.599 148.132 282.799C148.132 281.999 147.558 258.981 147.254 246.92C147.233 246.117 147.868 245.45 148.673 245.432C149.421 245.328 150.146 246.045 150.164 246.848C150.182 247.475 150.352 254.276 150.54 261.798C157.208 260.576 168.341 257.115 176.186 254.391C176.446 254.301 176.728 254.283 176.998 254.352C190.493 257.518 193.764 261.549 196.389 264.784C200.656 270.836 200.327 282.356 200.309 282.846C200.284 283.631 199.641 284.251 198.854 284.251ZM151.016 281.344H197.403C197.36 278.21 196.948 270.62 194.154 266.639C191.807 263.75 188.923 260.198 176.742 257.277C173.027 258.555 159.002 263.289 150.615 264.737C150.785 271.571 150.951 278.419 151.016 281.344Z" fill="black"/>
<path d="M170.633 268.631C170.081 268.631 169.785 268.555 169.608 268.509C169.189 268.401 168.843 268.116 168.659 267.73C168.471 267.341 168.467 266.895 168.644 266.502C169.756 264.053 175.442 256.001 176.085 255.09C176.55 254.434 177.46 254.279 178.114 254.741C178.771 255.205 178.926 256.113 178.464 256.765C177.2 258.552 174.334 262.676 172.594 265.447C173.807 265.187 175.532 264.712 177.883 263.89C181.583 262.597 187.579 259.024 187.641 258.988C188.33 258.573 189.226 258.797 189.641 259.488C190.056 260.18 189.832 261.07 189.139 261.484C188.883 261.635 182.825 265.249 178.847 266.635C174.099 268.292 171.796 268.627 170.633 268.627V268.631Z" fill="black"/>
<path d="M197.482 274.86L149.749 274.824C148.944 274.824 148.294 274.172 148.294 273.368C148.294 272.565 148.947 271.917 149.749 271.917L197.482 271.953C198.287 271.953 198.937 272.605 198.937 273.408C198.937 274.211 198.284 274.86 197.482 274.86Z" fill="black"/>
<path d="M175.601 257.597C175.565 257.597 175.533 257.597 175.496 257.597C174.695 257.54 174.092 256.844 174.146 256.045C174.565 250.202 174.374 243.145 173.579 235.061C173.5 234.262 174.085 233.552 174.886 233.473C175.702 233.397 176.399 233.981 176.478 234.777C177.291 243.019 177.486 250.245 177.052 256.25C176.998 257.014 176.359 257.601 175.601 257.601V257.597Z" fill="black"/>
<path d="M305.963 120.458L292.952 137.349C292.952 137.349 300.144 137.579 313.317 144.229C325.234 150.245 335.364 166.402 335.364 166.402L352.787 145.328C352.787 145.328 342.093 133.66 332.079 129.02C318.895 122.911 305.963 120.454 305.963 120.454V120.458Z" fill="#39B44A"/>
<path d="M335.364 167.615C335.339 167.615 335.314 167.615 335.285 167.615C334.895 167.59 334.541 167.378 334.335 167.05C334.234 166.891 324.242 151.106 312.768 145.317C300.061 138.901 292.981 138.57 292.909 138.566C292.458 138.548 292.046 138.282 291.855 137.871C291.664 137.46 291.714 136.978 291.988 136.618L304.999 119.726C305.277 119.366 305.743 119.193 306.191 119.276C306.321 119.301 319.422 121.834 332.588 127.936C342.711 132.626 353.238 144.042 353.682 144.525C354.09 144.971 354.108 145.649 353.722 146.113L336.299 167.187C336.068 167.464 335.725 167.626 335.364 167.626V167.615ZM295.209 136.409C298.328 136.938 304.664 138.509 313.862 143.152C324.003 148.271 332.693 160.249 335.476 164.366L351.17 145.389C348.621 142.745 339.783 133.934 331.566 130.126C320.426 124.964 309.353 122.414 306.462 121.798L295.209 136.409Z" fill="black"/>
<path d="M138.322 188.552C137.976 188.552 137.633 188.429 137.366 188.195C134.662 185.843 132.315 183.048 130.449 179.975L129.495 184.888C129.344 185.677 128.589 186.203 127.792 186.037C127.001 185.886 126.485 185.122 126.64 184.337L128.376 175.357C128.495 174.733 129.008 174.261 129.636 174.189C130.272 174.132 130.875 174.46 131.134 175.04C132.647 178.397 134.77 181.513 137.344 184.168C137.51 182.115 137.326 179.989 137.149 177.914L135.867 163.03C135.799 162.23 136.391 161.527 137.192 161.459C138.001 161.408 138.698 161.981 138.766 162.781L140.048 177.666C140.311 180.717 140.608 184.179 139.73 187.475C139.6 187.961 139.228 188.343 138.748 188.491C138.607 188.534 138.467 188.555 138.322 188.555V188.552Z" fill="black"/>
<path d="M121.319 177.734C120.708 177.734 120.142 177.349 119.939 176.744C119.019 173.999 118.705 171.027 119.03 168.152C119.12 167.352 119.849 166.787 120.64 166.87C121.441 166.96 122.015 167.68 121.925 168.476C121.647 170.933 121.914 173.473 122.701 175.818C122.958 176.578 122.546 177.403 121.784 177.659C121.633 177.709 121.474 177.734 121.322 177.734H121.319Z" fill="black"/>
<path d="M273.194 111.153C271.251 111.153 269.703 110.919 268.844 110.562C268.508 110.421 268.251 110.14 268.147 109.791C267.919 109.031 266.212 109.189 266.19 109.193C265.598 109.265 265.017 108.887 264.862 108.296L263.771 104.125C263.634 103.602 263.862 103.069 264.295 102.795C264.468 102.54 264.739 102.349 265.067 102.284C265.111 102.273 269.479 101.394 275.696 99.4452C282.739 96.8083 288.793 88.8148 290.999 84.9603C291.266 84.4956 291.808 84.2615 292.335 84.384C293.992 84.7838 295.49 83.0691 295.504 83.0511C295.735 82.7845 296.071 82.6332 296.421 82.6296C296.772 82.6296 297.107 82.7773 297.338 83.0439C297.367 83.0763 300.097 86.1779 302.75 87.5C303.06 87.6549 303.292 87.9358 303.382 88.2708C303.472 88.6059 303.411 88.9625 303.219 89.2543C302.725 89.9928 302.71 90.8717 302.905 91.376C302.952 91.5021 303.06 91.7219 303.234 91.7615C303.573 91.8443 303.855 92.0713 304.017 92.3811C304.176 92.6909 304.198 93.0511 304.068 93.3753C302.653 97.01 293.616 104.107 286.79 107.788C282.158 110.285 276.937 111.153 273.19 111.153H273.194ZM270.205 108.465C272.602 109.081 279.652 108.887 285.638 105.659C291.927 102.269 299.234 96.4769 301.335 93.3609C301.046 93.0619 300.811 92.6873 300.642 92.2514C300.266 91.286 300.273 90.1332 300.627 89.085C298.884 87.9971 297.288 86.4949 296.356 85.5439C295.523 86.1851 294.234 86.9308 292.685 86.8659C291.053 89.4884 284.923 98.5842 276.486 101.74C271.623 103.267 267.945 104.135 266.374 104.485L266.966 106.758C268.143 106.826 269.522 107.248 270.205 108.469V108.465Z" fill="black"/>
<path d="M336.578 157.522C336.325 157.522 336.076 157.442 335.863 157.291C334.831 156.542 333.238 157.143 333.224 157.147C332.686 157.356 332.072 157.158 331.758 156.675C331.737 156.639 329.379 153.029 322.87 146.535C318.527 142.021 312.177 139.629 307.975 138.044C304.964 136.909 303.455 136.34 302.931 135.295C302.448 134.334 301.44 134.362 301.318 134.359C300.863 134.398 300.39 134.128 300.173 133.707C299.957 133.285 299.993 132.777 300.285 132.406L305.978 125.122C306.343 124.658 306.993 124.521 307.516 124.805C310.155 126.243 310.726 125.901 311.328 125.544C311.801 125.263 312.448 124.87 313.451 124.953C313.542 124.96 313.632 124.978 313.718 125.004C335.628 131.751 341.95 139.413 344.026 141.931C344.249 142.205 344.401 142.63 344.34 142.979C344.065 144.524 345.307 146.351 345.809 146.924C346.21 147.381 346.21 148.069 345.802 148.527C344.127 150.407 338.549 156.607 337.163 157.374C336.979 157.475 336.776 157.525 336.574 157.525L336.578 157.522ZM334.553 154.499C335.155 154.499 335.823 154.593 336.473 154.867C337.711 153.761 340.628 150.663 343.336 147.648C342.679 146.668 341.784 144.971 341.885 143.141C339.578 140.389 333.217 133.563 313.162 127.359C313.011 127.37 312.888 127.435 312.578 127.619C311.404 128.321 310.177 128.782 307.278 127.399L303.357 132.417C304.022 132.763 304.664 133.325 305.108 134.207C305.386 134.474 307.22 135.166 308.837 135.774C313.242 137.435 319.903 139.946 324.607 144.838C329.675 149.895 332.275 153.231 333.289 154.625C333.646 154.553 334.08 154.496 334.553 154.496V154.499Z" fill="black"/>
<path d="M250.031 132.896C249.194 132.896 248.53 132.36 247.829 131.798C246.566 130.778 245.566 130.097 244.114 130.602C243.353 130.865 242.526 130.465 242.259 129.705C241.995 128.948 242.396 128.12 243.158 127.853C246.244 126.78 248.468 128.574 249.659 129.535C249.833 129.676 250.053 129.852 250.205 129.96C257.187 129.085 261.833 128.35 261.88 128.343C262.67 128.22 263.418 128.757 263.548 129.55C263.674 130.342 263.133 131.088 262.338 131.214C262.291 131.221 257.475 131.981 250.28 132.878C250.194 132.889 250.111 132.896 250.028 132.896H250.031Z" fill="black"/>
<path d="M214.8 131.808C214.8 131.808 233.071 124.499 247.942 124.251C262.563 124.377 272.938 128.617 277.31 131.484C272.812 133.105 248.064 136.221 246.191 135.973C243.566 136.347 234.692 137.72 234.692 137.72C234.692 137.72 230.822 138.862 229.526 137.687C228.53 136.783 226.317 135.641 222.819 134.024C222.364 133.811 222.718 133.887 222.194 133.851C222.086 133.606 221.62 134.229 221.144 134.024C219.411 133.271 215.97 131.913 214.797 131.808H214.8Z" fill="#39B44A"/>
<path d="M269.84 133.872C269.84 133.872 289.721 145.872 295.609 164.24C280.392 165.709 267.399 168.289 267.399 168.289C267.399 168.289 263.702 141.707 230.081 137.053" fill="#39B44A"/>
<path d="M267.403 169.503C267.154 169.503 266.905 169.424 266.699 169.279C266.425 169.085 266.244 168.79 266.197 168.458C266.049 167.41 262.183 142.723 229.912 138.256C229.247 138.166 228.785 137.554 228.876 136.891C228.966 136.228 229.576 135.767 230.244 135.857C248.042 138.321 257.518 146.931 262.334 153.718C266.309 159.319 267.833 164.553 268.356 166.873C271.782 166.236 282.125 164.398 293.959 163.184C287.732 146.246 269.396 135.022 269.208 134.906C268.634 134.56 268.45 133.815 268.797 133.242C269.143 132.669 269.887 132.486 270.464 132.831C271.291 133.332 290.8 145.281 296.761 163.865C296.873 164.215 296.822 164.596 296.62 164.899C296.418 165.205 296.089 165.403 295.725 165.439C280.746 166.888 267.764 169.449 267.634 169.474C267.555 169.488 267.475 169.499 267.399 169.499L267.403 169.503Z" fill="black"/>
<path d="M273.483 162.295C273.082 162.295 272.7 162.093 272.476 161.758C272.458 161.733 270.725 159.215 267.909 158.512C267.57 158.429 267.285 158.202 267.126 157.893C265.4 154.564 259.407 145.079 252.465 141.2C251.88 140.872 251.671 140.137 251.999 139.553C252.324 138.97 253.064 138.757 253.649 139.089C260.599 142.972 266.595 151.787 269.035 156.315C271.559 157.118 273.288 158.898 274.05 159.827C276.393 159.651 280.971 159.218 283.108 158.635C283.519 157.406 284.379 156.556 285.111 156.005C279.913 146.589 266.469 138.494 266.331 138.411C265.754 138.069 265.57 137.323 265.913 136.751C266.259 136.174 267.007 135.991 267.577 136.333C268.191 136.697 282.682 145.418 287.787 155.886C288.061 156.452 287.859 157.133 287.317 157.453C286.725 157.806 285.516 158.53 285.324 159.762C285.259 160.191 284.971 160.551 284.566 160.706C281.967 161.715 274.418 162.233 273.566 162.287C273.541 162.287 273.516 162.287 273.487 162.287L273.483 162.295Z" fill="black"/>
<path d="M247.508 137.777C247.165 137.777 246.84 137.633 246.606 137.378C246.552 137.32 240.371 130.948 222.425 134.204C221.772 134.334 221.133 133.887 221.013 133.228C220.894 132.569 221.331 131.938 221.992 131.819C238.736 128.786 246.032 133.678 247.909 135.285C250.173 134.953 259.075 133.674 275.166 131.603C253.382 117.968 216.179 131.92 215.79 132.068C215.169 132.306 214.461 131.996 214.223 131.369C213.984 130.746 214.295 130.043 214.923 129.806C216.62 129.154 256.804 114.085 279.176 131.448C279.563 131.747 279.732 132.252 279.602 132.723C279.472 133.195 279.072 133.545 278.584 133.606C257.736 136.268 247.786 137.749 247.685 137.767C247.624 137.774 247.566 137.781 247.505 137.781L247.508 137.777Z" fill="black"/>
<path d="M204.645 145.944L204.62 138.718C204.609 136.682 202.941 135.029 200.89 135.029C199.898 135.032 198.97 135.422 198.273 136.12C197.941 136.455 197.677 136.844 197.497 137.262C197.248 137.208 196.991 137.183 196.728 137.183C195.735 137.187 194.807 137.576 194.11 138.275C193.652 138.736 193.385 139.316 193.219 139.928C192.807 139.816 192.381 139.759 191.934 139.759C190.955 139.759 189.912 140.043 188.832 140.602C187.832 141.117 185.966 142.468 185.341 145.281C184.905 144.824 184.374 144.471 183.728 144.28L183.684 131.765C183.674 129.73 182.006 128.076 179.955 128.076C178.966 128.08 178.038 128.469 177.338 129.168C176.637 129.87 176.251 130.803 176.258 131.794V132.269C175.442 131.823 174.54 131.571 173.554 131.571C171.655 131.571 170.056 132.435 169.598 132.713C168.998 133.08 168.536 133.61 168.226 134.218C167.98 134.168 167.724 134.139 167.464 134.139C166.471 134.143 165.543 134.532 164.847 135.231C164.735 135.342 164.684 135.49 164.59 135.612C164.511 135.609 164.439 135.58 164.359 135.58C163.789 135.58 163.218 135.713 162.735 135.955L156.948 138.761C156.052 139.193 155.381 139.946 155.056 140.879C154.727 141.819 154.789 142.828 155.218 143.707C155.709 144.719 156.641 145.45 157.717 145.702L157.745 153.379C157.756 155.414 159.424 157.068 161.46 157.068H161.475C162.468 157.064 163.395 156.675 164.092 155.976C164.792 155.274 165.175 154.341 165.172 153.35V153.257C165.814 153.79 166.63 154.125 167.529 154.125H167.543C168.392 154.121 169.161 153.786 169.811 153.267C169.652 154.665 168.926 162.316 171.756 165.638C172.702 166.754 173.991 167.388 175.468 167.432H175.497C176.089 167.432 176.677 167.288 177.201 167.017C178.136 166.535 178.905 165.796 179.522 164.845C179.645 164.878 179.76 164.921 179.887 164.942L180.244 164.982H180.435C182.067 164.982 183.471 163.941 183.962 162.439C184.392 162.615 184.865 162.709 185.356 162.713L185.93 162.68L186.237 162.608C187.204 162.378 188.024 161.79 188.544 160.944C188.591 160.868 188.594 160.775 188.634 160.699C188.89 160.742 189.139 160.8 189.406 160.8C190.674 160.8 191.757 160.317 192.464 159.95C193.847 159.229 194.894 158.188 195.551 156.942C195.944 157.082 196.36 157.172 196.8 157.172H196.814C198.334 157.165 199.638 156.243 200.208 154.939C200.457 154.989 200.713 155.018 200.981 155.018C203.031 155.007 204.688 153.339 204.677 151.3L204.667 148.282C204.919 147.514 204.916 146.682 204.656 145.944H204.645Z" fill="white"/>
<path d="M177.204 146.055C176.944 144.485 176.15 143.797 175.525 143.494C175.334 143.401 175.139 143.336 174.944 143.289C175.731 142.309 176.446 141.023 176.597 139.463C176.753 137.068 176.229 135.486 175.045 134.769C173.381 133.761 171.28 134.964 171.045 135.104C170.771 135.27 170.604 135.566 170.604 135.886L170.651 148.465C170.651 148.775 170.814 149.063 171.077 149.229C171.225 149.323 171.395 149.37 171.561 149.37C171.695 149.37 171.828 149.341 171.951 149.28L176.695 147.025C177.059 146.852 177.269 146.455 177.204 146.059V146.055ZM172.428 136.441C172.929 136.236 173.655 136.045 174.103 136.318C174.637 136.646 174.886 137.749 174.785 139.312C174.608 141.106 173.341 142.486 172.453 143.246L172.428 136.441ZM172.467 147.021V145.49C172.467 145.49 172.478 145.483 172.489 145.476C172.854 145.277 174.045 144.791 174.734 145.13C174.944 145.234 175.11 145.425 175.233 145.71L172.467 147.021Z" fill="black"/>
<path d="M167.467 136.935C167.009 136.942 166.554 137.345 166.558 137.846L166.605 150.425C166.605 150.926 167.013 151.329 167.514 151.329C168.016 151.329 168.424 150.919 168.42 150.418L168.374 137.839C168.374 137.338 167.966 136.935 167.464 136.935H167.467Z" fill="black"/>
<path d="M180.009 145.267C180.511 145.267 180.919 144.856 180.916 144.355L180.869 131.776C180.869 131.275 180.461 130.872 179.959 130.872C179.457 130.872 179.049 131.282 179.053 131.783L179.1 144.362C179.1 144.863 179.508 145.267 180.009 145.267Z" fill="black"/>
<path d="M163.951 138.469L158.157 141.283C157.706 141.502 157.518 142.046 157.734 142.497C157.893 142.821 158.218 143.008 158.554 143.008C158.688 143.008 158.825 142.979 158.951 142.918L160.496 142.169L160.54 153.372C160.54 153.873 160.947 154.276 161.449 154.276C161.951 154.276 162.359 153.865 162.355 153.365L162.309 141.286L164.742 140.105C165.193 139.885 165.381 139.341 165.164 138.891C164.944 138.44 164.402 138.253 163.948 138.469H163.951Z" fill="black"/>
<path d="M185.363 155.104C185.374 154.953 185.363 154.802 185.291 154.658C185.277 154.629 185.255 154.615 185.237 154.586L183.555 147.576C183.453 147.154 183.046 146.862 182.638 146.88C182.204 146.895 181.843 147.215 181.771 147.641L180.381 155.987C179.76 156.293 179.309 156.524 179.197 156.607C178.796 156.891 178.71 157.432 178.98 157.839C179.154 158.102 179.446 158.238 179.742 158.238C179.836 158.238 179.926 158.192 180.02 158.159L179.526 161.135C179.443 161.628 179.778 162.097 180.273 162.179C180.323 162.187 180.374 162.19 180.425 162.19C180.861 162.19 181.248 161.877 181.323 161.43L182.027 157.208C182.565 156.949 183.172 156.661 183.796 156.365L184.482 159.218C184.602 159.708 185.103 160.004 185.58 159.888C186.067 159.769 186.37 159.283 186.251 158.793L185.367 155.101L185.363 155.104ZM182.388 155.022L182.833 152.36L183.36 154.561C183.035 154.715 182.71 154.867 182.388 155.022Z" fill="black"/>
<path d="M201.955 146.769C201.926 146.711 201.883 146.672 201.847 146.621L201.818 138.732C201.818 138.231 201.41 137.828 200.908 137.828C200.406 137.828 199.998 138.239 200.002 138.739L200.031 146.675C199.11 147.111 198.32 147.486 197.681 147.795L197.655 140.89C197.655 140.389 197.247 139.986 196.746 139.986C196.233 139.96 195.832 140.396 195.836 140.897L195.865 148.7C195.724 148.775 195.612 148.837 195.569 148.869C195.172 149.154 195.085 149.694 195.356 150.097C195.478 150.281 195.666 150.382 195.868 150.44L195.879 153.48C195.879 153.981 196.287 154.384 196.789 154.384C197.291 154.384 197.699 153.973 197.695 153.473L197.681 149.816C198.33 149.499 199.182 149.092 200.031 148.689L200.042 151.326C200.042 151.826 200.45 152.23 200.951 152.23C201.453 152.23 201.861 151.819 201.858 151.319L201.843 147.702C202.038 147.442 202.099 147.089 201.948 146.772L201.955 146.769Z" fill="black"/>
<path d="M175.482 152.237C175.897 152.198 176.262 152.641 176.338 153.257C176.399 153.754 176.84 154.114 177.352 154.049C177.85 153.988 178.208 153.538 178.146 153.037C177.959 151.506 176.872 150.429 175.5 150.418H175.482C174.251 150.418 172.886 151.34 172.605 153.411C172.276 155.821 172.143 161.794 173.883 163.837C174.432 164.481 175.042 164.629 175.46 164.64H175.486C175.63 164.64 175.775 164.604 175.901 164.539C176.897 164.027 177.619 162.918 178.045 161.239C178.168 160.753 177.872 160.259 177.385 160.137C176.901 160.015 176.403 160.31 176.28 160.796C176.049 161.704 175.72 162.378 175.341 162.731C175.32 162.713 175.298 162.687 175.276 162.659C174.193 161.391 174.042 156.398 174.414 153.656C174.547 152.677 175.049 152.237 175.486 152.237H175.482Z" fill="black"/>
<path d="M192.923 142.821C192.222 142.399 191.28 142.489 190.114 143.087C188.818 143.754 187.414 145.31 188.074 148.941C188.338 150.393 189.544 150.814 190.341 151.095C191.114 151.365 191.349 151.495 191.424 151.834C191.536 152.331 191.645 152.846 191.695 153.383C191.8 154.496 191.338 155.328 190.32 155.858C189.76 156.146 189.493 156.182 189.461 156.218C189.424 156.142 189.363 155.926 189.345 155.357C189.327 154.856 188.937 154.463 188.403 154.478C187.901 154.496 187.507 154.914 187.522 155.418C187.544 156.009 187.583 157.237 188.504 157.774C188.785 157.94 189.092 158.004 189.396 158.004C190.031 158.004 190.67 157.724 191.157 157.468C192.847 156.592 193.684 155.079 193.507 153.213C193.45 152.597 193.327 152.007 193.201 151.434C192.89 150.061 191.717 149.651 190.944 149.381C190.154 149.107 189.933 148.981 189.868 148.62C189.309 145.551 190.544 144.914 190.948 144.705C191.72 144.309 191.988 144.381 191.973 144.424V145.461C191.977 145.962 192.385 146.365 192.887 146.365C193.388 146.365 193.793 145.955 193.793 145.454V144.417C193.785 143.927 193.558 143.213 192.915 142.824L192.923 142.821Z" fill="black"/>
<path d="M106.723 130.292C106.127 130.292 105.568 129.924 105.351 129.33C105.077 128.573 105.47 127.741 106.228 127.471C111.228 125.677 112.496 119.932 112.51 119.874C112.676 119.089 113.449 118.577 114.232 118.75C115.019 118.912 115.524 119.676 115.366 120.461C115.304 120.76 113.781 127.853 107.217 130.209C107.055 130.267 106.889 130.295 106.723 130.295V130.292Z" fill="black"/>
<path d="M126.244 137.086C120.164 137.086 114.431 135.566 109.586 127.612C109.168 126.927 109.388 126.03 110.074 125.616C110.76 125.198 111.655 125.414 112.074 126.102C116.998 134.193 122.619 134.499 129.457 134.063C139.081 132.972 145.063 131.578 145.121 131.563C145.908 131.373 146.688 131.862 146.872 132.644C147.056 133.426 146.572 134.208 145.789 134.391C145.54 134.449 139.598 135.836 129.713 136.956C128.547 137.032 127.388 137.086 126.24 137.086H126.244Z" fill="black"/>
<path d="M174.135 235.202C171.832 235.202 169.597 234.359 167.857 232.799C165.789 230.947 164.655 228.296 164.742 225.526L166.124 180.825L156.153 184.791C154.576 185.422 152.792 185.231 151.384 184.294C149.973 183.357 149.113 181.787 149.085 180.097L148.442 142.241C148.381 138.664 150.243 135.281 153.305 133.411L203.19 102.954C207.078 100.58 211.71 99.5317 216.248 100.018L239.847 102.514C243.909 102.947 247.093 106.34 247.248 110.414L247.771 124.114C247.804 124.917 247.176 125.591 246.371 125.623C245.576 125.67 244.891 125.029 244.858 124.226L244.335 110.526C244.233 107.885 242.172 105.684 239.537 105.403L215.937 102.907C212.042 102.489 208.053 103.39 204.71 105.432L154.825 135.89C152.644 137.223 151.312 139.636 151.355 142.19L151.998 180.047C152.009 180.793 152.373 181.459 152.998 181.873C153.622 182.288 154.377 182.367 155.077 182.089L167.114 177.302C167.572 177.118 168.088 177.179 168.489 177.46C168.89 177.741 169.124 178.206 169.11 178.696L167.659 225.612C167.601 227.525 168.384 229.355 169.81 230.634C171.236 231.913 173.146 232.493 175.041 232.23L196.85 229.208C200.67 228.678 203.493 225.252 203.273 221.409L201.829 196.12C201.8 195.587 202.063 195.079 202.518 194.802C202.861 194.586 211.006 189.276 209.742 174.661C209.688 174.042 210.038 173.455 210.609 173.206C214.941 171.315 242.501 160.209 243.674 159.737C244.421 159.438 245.27 159.795 245.569 160.54C245.872 161.286 245.511 162.133 244.764 162.432C244.493 162.54 219.179 172.745 212.721 175.468C213.515 188.768 207.027 195.007 204.782 196.758L206.179 221.25C206.482 226.592 202.562 231.354 197.247 232.093L175.439 235.115C175.005 235.177 174.569 235.205 174.139 235.205L174.135 235.202Z" fill="black"/>
<path d="M211.186 174.539C211.186 174.539 191.186 180.45 189.55 180.45C188.464 180.45 188.771 182.147 189.363 185.681C189.514 186.571 193.384 187.359 193.341 188.512C193.298 189.669 190.677 191.016 190.316 192.449C187.507 203.667 192.807 210.882 192.807 210.882L204.247 203.808C204.247 203.808 221.933 187.096 211.186 174.539Z" fill="white"/>
<path d="M211.186 174.539C211.186 174.539 191.186 180.45 189.55 180.45C188.464 180.45 188.771 182.147 189.363 185.681C189.514 186.571 193.384 187.359 193.341 188.512C193.298 189.669 190.677 191.016 190.316 192.449C187.507 203.667 192.807 210.882 192.807 210.882L199.623 206.668C204.143 203.872 208.013 200.115 210.774 195.58C214.399 189.629 217.103 181.455 211.186 174.542V174.539Z" fill="white"/>
<path d="M192.81 212.338C192.359 212.338 191.919 212.129 191.633 211.744C191.399 211.427 185.962 203.844 188.904 192.097C189.186 190.965 190.121 190.094 190.944 189.323C191.139 189.139 191.391 188.905 191.59 188.696C191.265 188.523 190.85 188.332 190.554 188.195C189.251 187.601 188.121 187.082 187.926 185.919C187.319 182.327 187.056 180.76 187.947 179.712C188.341 179.251 188.908 178.995 189.55 178.995C190.752 178.909 201.392 175.915 210.771 173.145C211.323 172.979 211.919 173.159 212.291 173.595C217.482 179.658 217.385 187.522 212.016 196.333C209.222 200.926 205.2 204.928 200.388 207.903L193.572 212.118C193.334 212.266 193.067 212.338 192.807 212.338H192.81ZM190.734 185.054C190.998 185.205 191.446 185.411 191.771 185.558C193.218 186.221 194.857 186.97 194.799 188.57C194.756 189.744 193.832 190.609 192.94 191.445C192.518 191.841 191.807 192.504 191.734 192.803C189.731 200.793 192.038 206.538 193.29 208.876L198.861 205.432C203.283 202.695 206.973 199.027 209.532 194.824C214.031 187.442 214.406 181.185 210.662 176.21C204.778 177.943 193.518 181.214 190.283 181.812C190.312 182.511 190.521 183.782 190.738 185.054H190.734Z" fill="black"/>
<path d="M68.5207 181.387C68.4233 180.238 68.3691 179.078 68.3583 177.907C67.138 178.058 65.9178 178.238 64.694 178.444C63.9034 178.57 63.5712 179.395 63.6218 180.274C63.6615 180.976 63.8492 181.751 64.1308 182.363C63.3835 182.55 62.6398 182.749 61.8961 182.958C61.6001 182.269 61.3907 181.34 61.3329 180.238C61.1813 177.305 62.6651 175.22 64.5857 175.043C65.8745 174.906 67.1633 174.795 68.4521 174.719C68.5135 173.728 68.6074 172.734 68.7337 171.736C69.4991 171.736 70.2644 171.74 71.0262 171.758C70.8998 172.716 70.8023 173.667 70.7374 174.615C71.528 174.586 72.3186 174.571 73.1092 174.568C73.037 175.54 73.0009 176.506 73.0009 177.468C72.2139 177.522 71.4269 177.586 70.6363 177.662C70.6363 178.779 70.6868 179.888 70.7735 180.983C70.0225 181.11 69.2716 181.246 68.5243 181.391L68.5207 181.387Z" fill="black"/>
<path d="M76.2827 192.039C77.1383 191.679 78.0553 192.089 78.4344 192.936C78.8134 193.782 78.503 194.733 77.6871 195.176C76.8712 195.62 75.9 195.285 75.4777 194.355C75.0589 193.426 75.4235 192.403 76.2791 192.042L76.2827 192.039ZM73.7809 193.638C74.1419 194.514 74.5318 195.371 74.947 196.21C72.2935 197.712 69.7086 199.373 67.1996 201.189C66.6725 200.18 66.1779 199.153 65.7158 198.105C68.3404 196.455 71.03 194.968 73.7773 193.638H73.7809Z" fill="black"/>
<path d="M72.1016 187.997C71.773 186.711 71.1124 185.742 70.3795 185.184C71.9174 184.77 73.4626 184.402 75.0113 184.082C74.8633 183.199 74.7442 182.306 74.6539 181.405C70.3759 182.014 66.1015 182.965 61.874 184.251C62.0184 185.36 62.1989 186.459 62.4119 187.543C62.7513 187.417 63.0943 187.291 63.4336 187.169C62.8776 188.372 62.7693 190.13 63.1701 191.538C64.2351 195.227 67.0582 196.203 69.3542 194.928C71.6864 193.635 72.8525 190.987 72.0907 187.997H72.1016ZM65.1412 189.924C64.6827 188.156 65.4769 186.524 66.8271 186.117C68.1809 185.706 69.394 186.564 69.7947 188.199C70.1954 189.834 69.4914 191.236 68.2531 191.805C67.0221 192.37 65.5961 191.664 65.1448 189.924H65.1412Z" fill="black"/>
</g>
<defs>
<clipPath id="clip0_2409_12218">
<rect width="354" height="295" fill="white"/>
</clipPath>
</defs>
</svg>
